<?xml version="1.0" standalone="no"?>
<!DOCTYPE svg PUBLIC "-//W3C//DTD SVG 20010904//EN"
 "http://www.w3.org/TR/2001/REC-SVG-20010904/DTD/svg10.dtd">
<svg width="16" height="16" version="1.0" xmlns="http://www.w3.org/2000/svg" viewBox="0 0 223.000000 210.000000" preserveAspectRatio="xMidYMid meet">

<g transform="translate(0.000000,210.000000) scale(0.100000,-0.100000)"
fill="#000000" stroke="none">
<path d="M957 2051 c-64 -77 -105 -211 -91 -298 l6 -38 -59 -29 c-32 -15 -96
-53 -143 -83 -234 -153 -407 -319 -537 -515 -92 -139 -117 -199 -110 -259 7
-56 37 -129 73 -176 l25 -32 62 45 c54 41 166 104 182 104 3 0 -16 -27 -43
-60 -59 -73 -98 -148 -85 -161 16 -16 139 -32 160 -20 12 6 23 30 31 68 7 32
25 83 40 113 32 65 76 93 217 139 78 25 99 28 156 22 37 -4 91 -4 120 -1 48 5
56 9 85 48 18 23 35 39 37 35 14 -24 30 -141 30 -223 0 -173 -50 -297 -159
-400 -105 -98 -270 -163 -447 -177 -43 -3 -80 -9 -82 -14 -6 -8 112 -58 206
-87 102 -31 243 -44 351 -32 121 14 209 37 417 110 206 72 268 88 373 100 98
11 217 -2 312 -35 39 -14 71 -23 72 -22 8 7 36 202 45 312 27 327 -37 624
-181 835 -154 226 -415 376 -740 425 -52 8 -116 15 -141 15 -51 0 -64 10 -97
75 -25 51 -42 112 -50 188 l-7 61 -28 -33z m48 -246 c37 -77 68 -101 170 -130
129 -37 314 -131 412 -209 210 -168 353 -453 353 -707 0 -38 4 -59 12 -59 8 0
9 31 5 114 -11 192 -50 334 -129 474 -58 103 -195 242 -308 311 -100 62 -76
58 69 -10 128 -61 206 -115 297 -210 87 -92 124 -145 179 -262 82 -172 123
-399 112 -617 -6 -120 -24 -259 -36 -278 -4 -7 -35 0 -94 24 -124 50 -214 67
-317 60 -114 -7 -193 -31 -406 -122 -277 -118 -431 -148 -609 -121 -95 15
-240 55 -232 64 3 2 52 9 109 14 379 33 621 207 708 509 25 87 38 329 22 420
l-10 55 -1 -80 c-2 -167 -40 -333 -104 -462 -30 -62 -86 -139 -71 -98 50 136
77 360 63 532 -9 123 -11 132 -47 278 l-27 110 -6 -110 c-4 -60 -14 -140 -23
-178 -15 -63 -69 -187 -82 -187 -19 0 -149 78 -204 122 l-65 53 35 -43 c18
-23 69 -70 112 -104 43 -34 77 -63 75 -64 -8 -9 -144 19 -177 36 -35 18 -42
18 -80 5 -59 -21 -193 -92 -219 -117 -28 -25 -56 -89 -80 -182 l-19 -71 -50 0
c-28 1 -54 4 -57 7 -11 10 51 121 101 183 47 58 47 58 18 51 -52 -13 -157 -58
-214 -92 l-55 -33 -23 27 c-12 15 -30 47 -39 71 l-17 44 35 30 c58 50 166 116
272 168 56 27 89 47 72 43 -54 -12 -199 -71 -293 -118 l-93 -46 25 47 c69 136
239 331 406 466 76 61 251 179 257 173 2 -1 -8 -23 -22 -47 -13 -25 -31 -65
-39 -90 -15 -42 -15 -43 2 -19 63 91 163 186 238 228 11 6 11 16 3 47 -15 55
-6 191 16 240 l18 40 13 -65 c8 -36 25 -88 39 -115z"/>
<path d="M551 1324 c-117 -62 -196 -121 -293 -215 -86 -84 -84 -84 22 -10 117
82 343 178 461 197 22 4 42 11 45 15 7 12 -94 59 -126 59 -14 0 -63 -21 -109
-46z"/>
<path d="M1942 640 c0 -14 2 -19 5 -12 2 6 2 18 0 25 -3 6 -5 1 -5 -13z"/>
</g>
</svg>
