<?xml version="1.0" encoding="UTF-8"?>
<svg xmlns="http://www.w3.org/2000/svg" viewBox="0 0 266.43 261.75">
  <defs>
    <style>
      .cls-1 {
        mix-blend-mode: multiply;
        opacity: .9;
      }

      .cls-2 {
        fill: #f26522;
      }

      .cls-3 {
        fill: #9e1f63;
      }

      .cls-4 {
        isolation: isolate;
      }

      .cls-5 {
        fill: #be1e2d;
      }

      .cls-6 {
        fill: #662d91;
      }

      .cls-7 {
        fill: #009444;
      }

      .cls-8 {
        fill: #e6f76b;
      }

      .cls-9 {
        fill: #d7df23;
      }

      .cls-10 {
        fill: #92278f;
      }

      .cls-11 {
        fill: #2a2a2b;
      }

      .cls-12 {
        fill: #39b54a;
      }

      .cls-13 {
        fill: #fbb040;
      }

      .cls-14 {
        fill: #27aae1;
      }

      .cls-15 {
        fill: #3f2d8e;
      }

      .cls-16 {
        fill: #a51919;
      }

      .cls-17 {
        fill: #8dc63f;
      }

      .cls-18 {
        fill: #fff200;
      }

      .cls-19 {
        fill: #2b3990;
      }

      .cls-20 {
        fill: #ed1c24;
      }

      .cls-21 {
        fill: #262262;
      }

      .cls-22 {
        fill: #006838;
      }

      .cls-23 {
        fill: #f7941e;
      }

      .cls-24 {
        fill: #ffde17;
      }

      .cls-25 {
        fill: #1c75bc;
      }
    </style>
  </defs>
  <g class="cls-4">
    <g id="Layer_2" data-name="Layer 2">
      <g id="Layer_1-2" data-name="Layer 1">
        <g>
          <g class="cls-1">
            <path class="cls-5" d="m182.65,142.94c2.2-8.24,3.89-16.55,5.06-24.87.62-3.8,1.1-7.55,1.43-11.29-5.12-11.64-11.06-23.33-18.96-33.34-1.03,9.53-2.87,19.4-3.51,28.82-.33,4.87-.34,9.61.26,14.14,1.25,8.46,4.83,15.99,10.52,22.09,1.82,1.26,4,3.66,5.22,4.47Z"/>
            <path class="cls-6" d="m141.89,203.56c-2.86-2.35-4.95-5.95-7.81-8.3-3.5,11.51-1.74,23.99,8.22,30.03,9.79-13.23,18.21-27.14,25.12-41.49-8.39-8.56-12.87-19.91-17.7-30.77-9.99,17.28-20.1,35.65-7.83,50.53Z"/>
            <path class="cls-3" d="m177.42,138.48c.89.95,1.82,1.87,2.81,2.76-7.23-4.13-14.96-9.71-17.64-15.85-2.85,5.69-1.81,11.48,1.49,15.53-2.13-1.48-4.47-2.84-4.85-5.53-2.5,5.61-6,11.56-9.52,17.64,4.84,10.86,9.31,22.21,17.7,30.77,6.41-13.31,11.53-26.99,15.22-40.85-1.23-.81-3.4-3.2-5.22-4.47Z"/>
            <path class="cls-13" d="m183.94,61.36c-.72-2.85-1.55-5.66-2.5-8.42-5.7-4.21-11.02-9.15-16.89-13.01.47,1.07.94,2.14,1.42,3.21,1.67,3.73,3.48,7.39,5.6,10.88,2.12,3.49,4.57,6.8,7.44,9.87-3.12-1.28-5.86-3.18-8.21-5.71.26,4.9-.06,10.03-.62,15.26,7.9,10.01,13.85,21.7,18.96,33.34.09-1.05.17-2.1.24-3.14.89-14.32-.68-28.5-5.43-42.27Z"/>
            <path class="cls-18" d="m189.4,39.48c-2.59-3.24-5.76-6.13-8.74-9.13-11.22-11.55-25.68-19.82-37.98-30.34,9.9,11.71,15.66,25.79,21.87,39.92,5.87,3.86,11.2,8.8,16.89,13.01-.8-2.33-1.67-4.64-2.63-6.91-2.1-4.95-4.62-9.71-7.69-14.18,2.78,3.88,5.13,7.99,7.13,12.26,1.42,3.02,2.68,6.12,3.79,9.27.1.08.21.15.31.23.8-5.46,4.07-9.66,7.04-14.13Z"/>
            <path class="cls-23" d="m211.49,73.26c-1.05,4.28-3.22,8.48-4.77,12.95-.16-8.69-.33-17.39-3.82-24.65-1.36-3.58-3.06-6.96-5.03-10.21-.18-.29-.37-.58-.55-.87-.28,3.33-.7,6.68-1.29,9.99-.01.09-.02.14-.02.14,0-.05.01-.1.02-.14.18-1.15,1.18-9.34-4.81-18.5-.56-.86-1.18-1.69-1.82-2.5-2.97,4.47-6.24,8.67-7.04,14.13-.1-.08-.21-.15-.31-.23.46,1.29.89,2.6,1.29,3.91,5.12,13.9,7.3,28.31,7.05,42.91-.04,2.57-.16,5.14-.35,7.72,10.93-5.68,18.78-14.78,24.31-25.35-.15-3.26-.98-6.4-2.85-9.32Z"/>
            <path class="cls-2" d="m217.49,87.09c-1.61,3.97-4.36,7.66-6.29,11.49,1.88-5.34,3.37-10.82,3.14-16-5.53,10.56-13.38,19.67-24.31,25.35-.17,2.32-.39,4.65-.67,6.98-.67,9.37-2.15,18.67-4.34,27.86,13.77-3.79,26.78-10.53,38.7-18.64.11-1.44.2-2.86.25-4.26.12-5.62-.33-11.21-1.4-16.7-1.07-5.49-2.75-10.87-5.08-16.09Z"/>
            <path class="cls-15" d="m122.32,255.53c4.67-2.92,9.16-7.18,13.75-11.56,10.31-9.86,21.12-20.76,34.34-26.69-4.99,1.03-10.19,1.94-14.96,2.6,24.75-5.56,41.94-22.33,52.92-42.47-12.61,4.02-25.44,7.08-38.6,7.7-11.93,24.9-28.43,48.6-47.44,70.42Z"/>
            <path class="cls-10" d="m223.72,124.14c-11.93,8.1-24.93,14.85-38.7,18.64-3.44,14.4-8.65,28.55-15.25,42.34,13.16-.61,25.99-3.68,38.6-7.7,7.36-13.49,11.94-28.5,14.14-42.67-4.63,4.4-9.37,8.83-13.88,12.93,0,0,6.71-6.68,14.45-17.03.27-2.2.48-4.37.64-6.5Z"/>
          </g>
          <g class="cls-1">
            <path class="cls-11" d="m256.55,91.89s-.05.08-.08.12c0,0,.03-.04.08-.12Z"/>
            <path class="cls-7" d="m213.06,163.22c5.14-6.81,9.84-13.86,14.06-21.13,2.01-3.28,3.87-6.58,5.58-9.92-.35-12.71-1.45-25.78-4.99-38.03-4.55,8.44-9.97,16.88-14.12,25.36-2.14,4.38-3.94,8.77-5.09,13.19-2.03,8.31-1.55,16.63,1.41,24.42,1.21,1.86,2.32,4.89,3.15,6.11Z"/>
            <path class="cls-19" d="m152.46,204c-1.76-3.25-2.34-7.38-4.11-10.63-7.58,9.34-10.66,21.56-3.71,30.91,14.05-8.56,27.1-18.28,38.91-28.96-4.55-11.09-4.41-23.3-4.8-35.18-15.76,12.24-32.06,25.44-26.3,43.85Z"/>
            <path class="cls-14" d="m209.91,157.12c.46,1.22.98,2.42,1.57,3.61-5.14-6.55-10.19-14.63-10.36-21.33-4.78,4.2-6,9.95-4.48,14.94-1.42-2.18-3.07-4.31-2.4-6.95-4.43,4.25-9.92,8.44-15.47,12.75.39,11.88.25,24.08,4.8,35.18,10.96-9.91,20.86-20.65,29.5-32.1-.83-1.21-1.94-4.25-3.15-6.11Z"/>
            <path class="cls-17" d="m245.01,88.14c.41-2.91.69-5.83.86-8.74-3.69-6.05-6.76-12.63-10.74-18.42.03,1.17.07,2.34.1,3.51.14,4.08.43,8.15,1.09,12.18.65,4.03,1.66,8.02,3.17,11.95-2.41-2.36-4.23-5.16-5.45-8.39-1.61,4.64-3.84,9.27-6.33,13.9,3.54,12.25,4.64,25.32,4.99,38.03.48-.94.95-1.88,1.4-2.82,6.22-12.93,10.11-26.66,10.91-41.2Z"/>
            <path class="cls-9" d="m258.32,69.94c-1.18-3.98-3.02-7.85-4.66-11.75-6.04-14.93-16.31-28.04-23.74-42.42,4.76,14.58,4.79,29.79,5.21,45.22,3.98,5.79,7.05,12.38,10.74,18.42.14-2.46.2-4.93.17-7.39-.08-5.38-.62-10.73-1.77-16.03,1.11,4.65,1.74,9.34,1.99,14.04.17,3.34.17,6.68.01,10.01.07.11.13.22.2.33,2.8-4.75,7.41-7.41,11.85-10.43Z"/>
            <path class="cls-12" d="m266.05,109.56c-2.58,3.57-6.18,6.64-9.3,10.2,3.13-8.11,6.25-16.23,5.75-24.27.09-3.83-.21-7.6-.81-11.35-.05-.34-.12-.67-.18-1.01-1.52,2.98-3.17,5.92-4.96,8.77-.05.08-.08.12-.08.12.03-.04.05-.08.08-.12.6-1,4.62-8.2,2.52-18.95-.2-1.01-.45-2.01-.75-3-4.44,3.02-9.05,5.68-11.85,10.43-.07-.11-.14-.22-.2-.33-.07,1.37-.16,2.74-.28,4.11-.5,14.8-3.92,28.97-9.65,42.4-1.01,2.36-2.09,4.7-3.24,7.02,12.26-1.14,22.97-6.61,32.07-14.31,1.09-3.08,1.5-6.3.87-9.71Z"/>
            <path class="cls-22" d="m266.39,124.63c-2.99,3.07-6.92,5.46-10.15,8.27,3.75-4.24,7.2-8.75,8.94-13.64-9.1,7.7-19.81,13.17-32.07,14.31-1.03,2.09-2.12,4.16-3.26,6.21-4.15,8.43-9.03,16.48-14.53,24.17,14.18,1.69,28.77.34,42.87-2.67.64-1.29,1.26-2.57,1.84-3.85,2.23-5.16,3.92-10.51,5-15.99,1.08-5.48,1.55-11.11,1.36-16.82Z"/>
            <path class="cls-21" d="m114.74,244.76c5.43-.95,11.19-3.19,17.09-5.53,13.26-5.25,27.39-11.27,41.86-11.77-5.01-.93-10.17-2.04-14.84-3.23,25.02,4.18,47.26-4.87,65.03-19.39-13.19-1.04-26.23-3.03-38.65-7.42-20.43,18.56-44.66,34.3-70.49,47.34Z"/>
            <path class="cls-25" d="m258.19,161.29c-14.1,3.01-28.69,4.35-42.87,2.67-8.61,12.04-18.77,23.18-30.09,33.46,12.42,4.39,25.46,6.39,38.65,7.42,11.9-9.72,21.8-21.9,29.18-34.19-5.95,2.33-12.01,4.64-17.73,6.75,0,0,8.73-3.66,19.81-10.33,1.08-1.93,2.09-3.86,3.05-5.78Z"/>
          </g>
          <g class="cls-1">
            <path class="cls-23" d="m87.45,184.89c11.44,7.27,22.4,15.41,35.69,18.98-6.32-15.91-8.55-32.66-14.84-52.87-17.04-4.61-32.29-13.48-47.03-22.94-.02-.13,0-.02,0,0,2.3,8.15,4.92,15.8,7.74,22.68,12.69,9.6,37.01,20.93,37.01,20.93-6.87-2.48-27.23-11.76-34.27-14.56,4.89,10.8,10.24,19.98,15.7,27.78Z"/>
            <path class="cls-20" d="m87.45,184.89c22.94,32.23,47.91,40.57,47.91,40.57-5.53-7.23-9.37-14.39-12.33-21.71-13.11-3.44-24.35-11.67-35.58-18.86Z"/>
            <path class="cls-12" d="m73.54,74.59c.39,4.26.06,9.28,1.31,13.4,11.95,12.73,25.13,32.09,35.29,61.13,1.54-6.97,4.21-13.66,7.07-20.22,1.63-3.73,3.32-7.44,4.93-11.18.81-1.88,1.54-3.8,2.3-5.7-6.44-13.31-15.23-23.91-25.19-32.36.87,6.82,1.36,22.87,1.96,33.03-.76-8.79-2.65-25.52-6.7-36.84-2.87-2.17-5.82-4.19-8.82-6.05.63,5.24,2.29,21.76,2.79,26.75,0,0-2.1-18.15-4.82-27.98-3.81-2.27-7.7-4.3-11.6-6.13.34,4.06,1.1,8.08,1.47,12.14Z"/>
            <path class="cls-17" d="m100.8,130.69c-14.9-34.56-34.1-51.65-46.06-59.5-.53,0-1.06,0-1.59.02-3.19.14-6.37.55-9.55.97-4,.53-8.04,1.07-12.06,1.07,1.91,2.19,3.82,4.53,5.72,7.02,10.05,2.26,15.77,8.28,15.77,8.28-5.71-3.69-10.52-4.94-13.59-5.35,1.07,1.48,2.14,3.01,3.2,4.59,13.06,4.44,20.66,12.25,20.66,12.25-8.1-5.67-14.7-7.91-18.42-8.79,6.45,10.3,12.28,22.53,16.41,36.86,14.75,9.49,30.01,18.31,47.07,22.98-2.02-6.42-4.45-13.19-7.55-20.4Z"/>
            <path class="cls-16" d="m141.31,172c-.99,4.82-2.76,10.32-4.48,14.94-2.33,6.24-6.08,11.85-8.59,18,17.66,40.31,38.46,48.8,38.46,48.8-18.31-17.99-23.29-31.41-23.14-36.54.31-10.87.05-22.74-1.21-35.31-1.93,3.62-3.86,7.2-5.75,10.62,0,0,2.48-5.03,5.49-13.06-.24-2.19-.47-5.21-.78-7.44Z"/>
            <path class="cls-24" d="m117.81,118.15c-1.76,5.66-3.68,11.28-5.62,16.88-1.29,3.73-2.45,7.45-3.05,11.27,2.64,7.26,5.1,15.13,7.3,23.69,3.52,13.71,7.56,25.27,11.79,34.99,2.47-5.86,6.04-11.23,8.27-17.2,1.92-5.15,3.87-10.39,4.81-15.8-.64-4.52-1.42-9.11-2.35-13.76-2.44,6.67-5.31,10.62-5.31,10.62,2.57-5.72,3.87-10.63,4.5-14.5-2.45-11.29-5.83-22.92-10.38-34.7-1.91-4.94-4.13-9.55-6.6-13.84-.94,4.14-2.09,8.26-3.35,12.33Z"/>
            <path class="cls-8" d="m52.7,81.34c7.81,1.75,15.31,4.82,22.6,8.02-16.89-19.17-31.85-24.12-31.85-24.12,0,0,14.69,4.79,31.78,23.15-.85-8.57-1-17.56-3.04-25.9C36.9,45.92,0,46.51,0,46.51c0,0,18.73,9.95,36.46,32.73,5.47.3,10.92.92,16.24,2.11Z"/>
          </g>
          <g class="cls-1">
            <path class="cls-5" d="m108.05,168.79c8.01,10.94,15.26,22.5,26.34,30.67-.1-17.12,3.92-33.53,5.41-54.65-14.19-10.49-25.17-24.31-35.46-38.48.03-.13,0-.02,0,0-.82,8.43-1.16,16.51-1.04,23.94,8.33,13.56,26.86,32.96,26.86,32.96-5.5-4.81-21.09-20.87-26.62-26.03.63,11.84,2.27,22.34,4.52,31.59Z"/>
            <path class="cls-6" d="m108.05,168.79c9.65,38.37,29.86,55.22,29.86,55.22-2.52-8.75-3.5-16.81-3.59-24.71-10.97-7.97-18.43-19.73-26.28-30.52Z"/>
            <path class="cls-2" d="m136.52,53.22c-.42,1.4-.94,2.79-1.49,4.18-1.31,4.96-2.81,9.86-3.84,14.9-.03.14-.07.29-.1.43,6.73,16.27,12.25,39.47,11.12,70.99,3.97-5.93,8.89-11.2,13.94-16.26,2.88-2.88,5.8-5.72,8.66-8.62,1.44-1.46,2.82-2.98,4.22-4.47-1.16-14.74-5.49-27.81-11.68-39.31-1.67,6.67-7.05,21.8-10.2,31.48,2.49-8.46,6.82-24.73,7.16-36.75-1.88-3.07-3.9-6.02-6.01-8.85-1.32,5.11-5.78,21.1-7.13,25.93,0,0,4.65-17.67,5.7-27.82-2.91-3.73-5.98-7.24-9.16-10.55-.32,1.56-.7,3.13-1.17,4.7Z"/>
            <path class="cls-13" d="m140.2,123.16c-1.3-37.61-12.97-60.52-21.26-72.18-.49-.2-.99-.39-1.49-.56-3.02-1.03-6.13-1.81-9.25-2.57-3.92-.96-7.88-1.93-11.62-3.39.98,2.74,1.91,5.61,2.78,8.62,8.54,5.76,11.67,13.45,11.67,13.45-3.98-5.51-8-8.43-10.71-9.92.46,1.77.9,3.58,1.31,5.44,10.55,8.89,14.78,18.92,14.78,18.92-5.49-8.23-10.82-12.72-13.96-14.89,2.26,11.94,3.24,25.46,1.88,40.31,10.29,14.21,21.3,27.97,35.48,38.53.46-6.72.66-13.91.39-21.75Z"/>
            <path class="cls-15" d="m162.91,176.37c-2.67,4.13-6.32,8.61-9.61,12.28-4.44,4.96-9.98,8.82-14.55,13.64,1.79,43.98,18.06,59.45,18.06,59.45-10.51-23.42-10.27-37.73-8.26-42.46,4.25-10.01,8.32-21.17,11.72-33.33-3.11,2.67-6.22,5.3-9.22,7.8,0,0,4.14-3.79,9.87-10.17.57-2.13,1.46-5.03,1.98-7.22Z"/>
            <path class="cls-10" d="m160.61,117.67c-3.7,4.63-7.53,9.17-11.38,13.68-2.56,3-4.99,6.05-6.95,9.39-.18,7.72-.75,15.95-1.82,24.72-1.71,14.06-2.15,26.29-1.75,36.88,4.43-4.56,9.71-8.26,13.96-13.01,3.67-4.1,7.39-8.27,10.23-12.96,1.04-4.44,1.99-9,2.81-13.67-4.7,5.32-8.81,7.96-8.81,7.96,4.48-4.4,7.47-8.49,9.47-11.87,1.82-11.41,2.91-23.47,2.95-36.1.02-5.3-.37-10.39-1.11-15.29-2.39,3.52-4.95,6.93-7.61,10.26Z"/>
            <path class="cls-24" d="m113.36,59.7c6.63,4.47,12.51,10.06,18.14,15.69-8.76-24-20.89-34.05-20.89-34.05,0,0,11.94,9.81,21.18,33.13,2.32-8.29,5.46-16.72,6.59-25.23-26.85-28.29-61.43-41.16-61.43-41.16,0,0,13.83,16.09,22.06,43.75,4.99,2.27,9.84,4.83,14.36,7.87Z"/>
          </g>
        </g>
      </g>
    </g>
  </g>
</svg>