<?xml version="1.0" encoding="UTF-8"?>
<svg id="Layer_2" data-name="Layer 2" xmlns="http://www.w3.org/2000/svg" viewBox="0 0 521.93 525.93">
  <defs>
    <style>
      .cls-1 {
        fill: #fff;
      }

      .cls-2 {
        fill: #6bbffa;
      }

      .cls-3 {
        fill: #91c8f0;
      }

      .cls-4 {
        fill: #6cbffa;
      }
    </style>
  </defs>
  <g id="Layer_1-2" data-name="Layer 1">
    <g>
      <path class="cls-2" d="m521.93,214.97v26c-.33.7-.86,1.38-.95,2.12-3.15,25.02-13.6,46.65-30.75,64.98-24.92,26.64-56.28,42.71-90.74,52.61-19.64,5.64-39.89,9.37-60.05,12.92-11.98,2.11-24.31,2.2-36.48,3.2-9.32-.06-18.64-.12-27.95-.18-7.76-.54-15.57-.69-23.26-1.71-15.19-2.02-30.39-4.12-45.46-6.9-25.93-4.79-50.48-13.83-73.82-26.02-17.11-8.93-32.48-20.09-44.14-35.83-15.55-21-19.61-45.36-20.11-70.48-.23-11.48,1.51-23.04,2.81-34.51,2.8-24.74,10.28-48.19,20.92-70.58,21.15-44.54,52.75-79.58,96.02-103.64,20.14-11.2,41.47-19.24,64.32-23C259.2,2.79,266.07,1.32,272.97,0c13.66,0,27.33,0,40.99,0,8.22,1.4,16.51,2.47,24.65,4.25,51.17,11.18,93.41,37.32,126.95,77.32,27.05,32.26,44.47,69.3,52.38,110.72,1.44,7.54,2.68,15.12,4.01,22.68Zm-316.62,119.4c-5.99-4.7-12.14-9.21-17.93-14.14-17.03-14.5-31.17-31.45-40.8-51.71-15.19-31.97-20.4-65.82-17.6-100.99,1.29-16.26,2.71-32.5,4.13-49.48-3.4,7.25-6.82,14.01-9.78,20.95-11.3,26.46-17.3,54.24-19.14,82.84-.55,8.49.63,17.2,1.92,25.67,2.84,18.65,9.88,35.58,23.81,48.76,21.2,20.07,47.72,30.08,75.4,38.1ZM283.12,48.34c3.22-.94,9.48-2.34,15.37-4.65,4.24-1.66,7.56-4.86,7.56-10.13,0-5.08-3.17-8.18-7.31-9.69-5.19-1.9-10.69-3.25-16.17-4.02-8.93-1.24-17.48.33-24.51,6.44-5.67,4.93-5.44,10.33.39,15.17,6.2,5.14,13.73,6.19,24.66,6.87Z"/>
      <path class="cls-1" d="m302.95,376.79c12.17-1,24.5-1.09,36.48-3.2,20.16-3.55,40.41-7.27,60.05-12.92,34.46-9.9,65.82-25.97,90.74-52.61,17.15-18.33,27.6-39.96,30.75-64.98.09-.73.62-1.41.95-2.12v284.96h-248.97c.7-.33,1.37-.77,2.11-.98,12.57-3.6,14.54-7.88,13.94-17.67-.64-10.33-10.92-18.03-20.95-15.5-5.45,1.38-10.96,2.49-16.42,3.81-16.41,3.97-34.36-2.74-41.34-16.25-2.68-5.18-9.43-4.94-12.83-.12-3.66,5.19-3.48,12.93.67,19.25,6.83,10.39,17.34,15.89,28.38,20.24,7.58,2.99,15.62,4.85,23.45,7.21H0C0,470.61,0,415.28,0,359.95c.33.87.7,1.73.99,2.62,2.42,7.35,3.89,15.19,7.41,21.96,8.9,17.12,23.66,28.5,40.27,37.54,33.67,18.32,70.35,24.34,108.05,25.79,5.93.23,11.9-.47,17.84-.95,12.03-.97,24.15-1.48,36.07-3.27,27.29-4.11,53.75-11.53,79.31-21.97,10.2-4.17,20.13-8.98,30.19-13.51-2.46-1.15-4.57-1.27-6.65-1.13-9.24.6-18.49,1.87-27.72,1.78-15.92-.16-31.83-1.09-47.74-1.83-19.23-.89-38.04-4.55-56.69-9.06-32.69-7.91-63.74-19.71-91.17-39.66-22.73-16.54-40.44-36.96-48.46-64.6-.89-3.08-1.89-6.14-2.99-9.67-14.1,12.98-25.93,26.82-32.67,44.27C3.45,334.93,1.98,342.04,0,348.96,0,232.73,0,116.51,0,0,90.99,0,181.98,0,272.97,0c-6.9,1.32-13.77,2.79-20.69,3.93-22.85,3.75-44.18,11.8-64.32,23-43.27,24.06-74.87,59.11-96.02,103.64-10.63,22.39-18.11,45.84-20.92,70.58-1.3,11.47-3.04,23.03-2.81,34.51.51,25.12,4.56,49.48,20.11,70.48,11.67,15.75,27.04,26.9,44.14,35.83,23.35,12.19,47.89,21.23,73.82,26.02,15.07,2.78,30.27,4.89,45.46,6.9,7.69,1.02,15.5,1.17,23.26,1.71,9.32.06,18.64.12,27.96.18Zm23.17,139.65c1.26.09,3.12.5,4.92.3,3.76-.43,7.49-1.15,11.22-1.81,24.06-4.27,45.63-13.84,63.68-30.57,21.41-19.85,33.81-44.93,40.87-72.79,2.88-11.38,4.46-23.08,6.72-35.06-12.52,4.8-24,9.08-35.33,13.7-1.43.58-2.6,2.86-3.07,4.57-3.84,13.98-6.44,28.4-11.41,41.96-9.63,26.32-25.5,48.57-48.89,64.5-8.91,6.07-19.15,10.21-28.71,15.19Z"/>
      <path class="cls-4" d="m0,348.96c1.98-6.91,3.45-14.02,6.03-20.7,6.74-17.44,18.57-31.28,32.67-44.27,1.1,3.54,2.09,6.59,2.99,9.67,8.01,27.64,25.72,48.06,48.46,64.6,27.43,19.95,58.48,31.75,91.17,39.66,18.65,4.51,37.46,8.17,56.69,9.06,15.91.74,31.82,1.67,47.74,1.83,9.23.1,18.48-1.18,27.72-1.78,2.09-.13,4.19-.02,6.65,1.13-10.05,4.52-19.99,9.34-30.19,13.51-25.55,10.44-52.02,17.86-79.31,21.97-11.92,1.79-24.03,2.3-36.07,3.27-5.94.48-11.91,1.17-17.84.95-37.7-1.45-74.38-7.47-108.05-25.79-16.61-9.04-31.36-20.42-40.27-37.54-3.52-6.77-4.99-14.61-7.41-21.96-.29-.88-.66-1.75-.99-2.62,0-3.67,0-7.33,0-11Z"/>
      <path class="cls-1" d="m521.93,214.97c-1.33-7.56-2.57-15.14-4.01-22.68-7.9-41.42-25.33-78.46-52.38-110.72-33.53-40-75.77-66.14-126.95-77.32-8.14-1.78-16.43-2.85-24.65-4.25,69.32,0,138.65,0,207.97,0v214.97Z"/>
      <path class="cls-4" d="m249.97,525.93c-7.83-2.36-15.87-4.22-23.45-7.21-11.04-4.35-21.55-9.86-28.38-20.24-4.15-6.32-4.33-14.05-.67-19.25,3.4-4.82,10.16-5.07,12.83.12,6.97,13.5,24.93,20.21,41.34,16.25,5.46-1.32,10.97-2.43,16.42-3.81,10.03-2.53,20.3,5.17,20.95,15.5.61,9.78-1.37,14.07-13.94,17.67-.74.21-1.41.65-2.11.98h-23Z"/>
      <path class="cls-1" d="m205.32,334.37c-27.68-8.01-54.2-18.03-75.4-38.1-13.93-13.18-20.97-30.11-23.81-48.76-1.29-8.47-2.47-17.18-1.92-25.67,1.85-28.6,7.85-56.38,19.14-82.84,2.97-6.95,6.38-13.7,9.78-20.95-1.42,16.97-2.84,33.22-4.13,49.48-2.8,35.17,2.41,69.02,17.6,100.99,9.63,20.27,23.77,37.21,40.8,51.71,5.79,4.93,11.95,9.44,17.93,14.14Z"/>
      <path class="cls-1" d="m283.12,48.34c-10.93-.68-18.47-1.73-24.66-6.87-5.83-4.84-6.06-10.23-.39-15.17,7.02-6.12,15.57-7.68,24.51-6.44,5.48.76,10.98,2.12,16.17,4.02,4.13,1.51,7.31,4.62,7.31,9.69,0,5.26-3.32,8.46-7.56,10.13-5.9,2.31-12.15,3.7-15.37,4.65Z"/>
      <path class="cls-3" d="m302.95,376.79c-9.32-.06-18.64-.12-27.96-.18,9.32.06,18.64.12,27.96.18Z"/>
      <path class="cls-4" d="m326.12,516.44c9.56-4.98,19.79-9.12,28.71-15.19,23.39-15.93,39.26-38.19,48.89-64.5,4.96-13.56,7.57-27.98,11.41-41.96.47-1.72,1.64-3.99,3.07-4.57,11.33-4.62,22.81-8.9,35.33-13.7-2.25,11.98-3.83,23.68-6.72,35.06-7.06,27.86-19.46,52.94-40.87,72.79-18.05,16.73-39.62,26.29-63.68,30.57-3.73.66-7.46,1.38-11.22,1.81-1.8.2-3.67-.21-4.92-.3Z"/>
    </g>
  </g>
</svg>