<?xml version="1.0" encoding="UTF-8"?>
<svg id="Layer_2" data-name="Layer 2" xmlns="http://www.w3.org/2000/svg" viewBox="0 0 523 527">
  <defs>
    <style>
      .cls-1 {
        fill: #6bbffa;
      }
    </style>
  </defs>
  <g id="Layer_1-2" data-name="Layer 1">
    <g>
      <path class="cls-1" d="m523,216v26c-1.68.18-1.03,1.53-.95,2.29.35,3.29-.45,6.61-1.57,9.38-1.08,2.68-1.44,5.16-1.47,6.84-.9,2.33-1.48,3.76-2.01,5.21-1.71,4.62-3.11,9.39-5.16,13.85-4.56,9.93-10.92,18.8-18.06,26.97-5.96,6.81-12.55,13.11-19.65,18.8-1.71,1.37-3.66,2.43-5.47,3.67-6.32,4.33-12.69,8.53-19.31,12.43-7.51,4.43-15.39,7.99-23.3,11.42-6.76,2.93-13.81,5.29-20.85,7.6-7.06,2.31-14.14,4.56-21.31,6.41-5.3,1.36-10.62,3.12-16.22,3.14-1.55,2.22-4.22.31-6.31,1.8-1.52,1.08-4.24.33-6.5,1.02-2.02.62-4.35.66-6.55,1.08-2.49.48-5.03.17-7.61.95-2.52.76-5.33.35-8.08.97-3.39.77-7.03.64-10.56,1-8.47.86-17.03.86-25.56,1.16-2.5.09-5,.01-7.5.01-5.66,0-11.45.71-16.96-.2-5.58-.92-11.08-.42-16.27-.85-2.18-1.12-4.1-2.11-5.97-3.08-.98.84-1.82,1.56-2.83,2.42-1.92-.84-3.75-1.65-5.51-2.42-1.15.48-2.14.89-3.26,1.35-2.31-1.02-4.39-3.81-7.12-1.15-1.93-1.61-4.14-.82-6.17-1.11-2.18-.31-4.32-.87-6.85-1.4-.64-.64-1.58-1.58-2.52-2.52-2.18,2.22-3.64.42-5.07-1.04-.7.7-1.29,1.29-1.51,1.51-1.69-.2-3.36.07-4.35-.62-1.72-1.21-3.02-3-5.27-1.04-4.01-1.77-8.43-2.06-12.54-3.52-3.35-1.19-6.67-2.6-10.13-3.25-3.97-.75-7.55-1.92-10.19-5.12-1.2,1.35-2.21,1.23-3.6.51-2.6-1.33-5.3-2.52-8.06-3.45-3.9-1.31-7.57-2.89-10.34-5.99-.46.38-.83.69-1.44,1.2-3.58-3.03-9.3-2.94-11.59-8.31h-3.56c-1.36-1.63-2.36-2.84-3.31-3.97h-4.13c-.38-.38-.7-.79-1.1-1.08-4.74-3.43-9.81-6.48-14.16-10.35-5.78-5.13-11.43-10.54-15.92-16.86-5.49-7.72-9.87-16.12-13.09-25.05-1.74-4.8-2.78-9.84-4.14-14.77-1.23-4.44-.91-9.14-1.95-13.68-.58-2.53.03-5.32-.14-7.97-.16-2.54-.82-5.05-.92-7.59-.13-3.55.22-7.05.8-10.61.9-5.6-.56-11.42,1.1-17.07.71-2.43-.35-4.99.87-7.65.99-2.15.59-4.99.96-7.53.6-4.08,1.36-8.13,2.3-12.12.5-2.15.7-4.35,1.27-6.46.76-2.83,1.96-5.55,2.6-8.41,1.49-6.67,3.84-13.06,6.24-19.42,2.39-6.33,5.11-12.55,7.84-18.75,1.12-2.54,2.55-4.96,3.99-7.34,1.52-2.53,2.77-5.2,4.17-7.75,3.64-6.6,7-13.47,12.56-18.82.54-.52.85-1.3,1.24-1.98,2.32-4.06,4.3-8.39,8.63-10.82,1.57-.88,1.16-2.54,1.52-3.4,1.78-1.12,3.22-2.03,4.77-3.01.43-1.3.92-2.77,1.51-4.56,6.59-5.76,12.18-13.02,19.54-18.47,3.13-2.32,5.85-5.18,8.82-7.71,1.57-1.34,3.24-2.58,4.95-3.73,4.68-3.16,9.34-6.35,14.13-9.33,4.35-2.7,8.85-5.15,13.31-7.68,5.65-3.2,11.56-5.84,17.58-8.23,4.15-1.65,8.28-3.35,12.47-4.91,3.92-1.47,7.93-2.62,11.92-3.77,4.34-1.25,8.72-2.43,13.2-3.25,2.49-.46,5.06-.44,7.47-1.2,2.56-.81,5.2-1.18,7.82-1.59,3.64-.58,7.34-.81,11.01-1.23.15-.02.24-.53.36-.82,13.67,0,27.33,0,41,0,.01,1.38,1.07.96,1.79.99,2.3.1,4.76-.36,6.88.31,5.51,1.74,11.18,2.12,17,2.92,1.62,1.66,5.3,1.21,5.58,4.75,1.2-.67,2.26-1.27,3.33-1.87.27.24.62.55.94.84.4-.35.77-.66,1.16-.99.89.36,1.72.85,2.61,1.02,1.08.21,2.13.53,3.15.8,6.45,1.68,12.72,3.94,18.84,6.41,4.52,1.82,9.57,3.03,13.17,6.78,2.84.35,4.68,3.1,7.73,3.13.95,0,1.88.95,2.84,1.48v2.18c1.27.41,2.58,1.16,3.91,1.19,2.2.05,3.91.79,5.67,2.1,5.56,4.13,11.58,7.6,17.09,11.86,4.03,3.11,8.07,6.2,12.05,9.39,2.14,1.71,3.71,4.04,6.27,5.36,1.22.63,1.97,2.14,3,3.18,2.71,2.75,5.44,5.48,8.2,8.18,1.05,1.03,2.53,1.79,3.2,3.01,2.36,4.35,6.75,6.9,9.33,11.09,2.17,3.52,5.23,6.47,7.62,9.86,1.17,1.66,2.43,3.28,3.56,4.94,4.21,6.19,8.12,12.59,12.07,18.96,2.28,3.67,2.27,8.05,3.14,11.31,3.65,2.3,4.73,5.85,6.78,8.5,2.41,3.12,2.49,7.13,2.03,11.22,3.71,1.83,5.35,5.41,5.86,8.9.47,3.19,2.87,5.71,2.5,9.01,2.82,4.8,3.3,10.3,4.71,15.53.32,1.2.77,2.37.97,3.59.22,1.27-.13,2.74.37,3.85,2,4.44,1.53,9.3,2.58,13.9.81,3.57.84,7.32,1.27,10.99.02.15.53.24.82.36ZM134.87,119.15c-2.5,4.81-5.62,9.15-7.78,14.08-1.86,4.22-3.75,8.44-5.59,12.68-3.35,7.72-5.18,15.87-7.48,23.89-.73,2.54-1.32,5.11-2.02,7.66-.7,2.57-1.07,5.21-1.63,7.8-.73,3.36-1.38,6.72-2.29,10.06-.66,2.43.13,5-.91,7.63-.89,2.24-.13,5-1.05,7.56-.63,1.77,0,3.97-.16,5.95-.17,2.04-.96,4.07-.9,6.08.18,7.03.61,14.05.94,21.08,1.96,2.41.74,5.49,1.77,8.25.99,2.66,1.93,5.68,2.13,8.59.3,4.51,1.95,8.55,3.68,12.51,3.5,8,8.23,15.25,14.39,21.54,4.1,4.18,8.61,7.83,13.28,11.35,5.15,3.89,10.52,7.33,16.28,10.21,3.6,1.79,7.06,3.85,10.68,5.59,1.99.96,3.78,2.15,5.65,3.28,1.68,1.02,4.41.87,5.47,2.2,1.71,2.14,4.07,1.74,6.03,2.59,4.51,1.96,9.19,3.61,13.93,4.95,2.44.69,4.94,2.52,7.7.81-1.63-.87-2.53-1.77-3.8-3.63-2.18-1.06-3.94-1.72-5.47-2.71-1.74-1.13-3.29-2.55-4.91-3.85-1.75-1.41-3.64-2.68-5.22-4.26-7.8-7.85-15.99-15.33-22.99-23.95-1.1-1.36-2.23-2.72-3.14-4.2-.47-.76-.5-1.78-.73-2.68-1.56-.31-2.56-1.02-2.84-2.76-.19-1.18-.59-2.9-1.42-3.31-2.35-1.16-3.17-3.39-4.03-5.34-2-4.52-4.74-8.63-6.66-13.23-1.95-4.68-3.93-9.35-5.96-14.03.87-.42,1.55-.75,1.96-.95v-4.7h-3.51c-1.13-3.4-2.37-6.57-3.21-9.85-.63-2.45-.06-5.43-1.25-7.46-1.52-2.57.42-5.62-1.81-7.78-.59-4.73-.92-9.48-1.89-14.19-.59-2.88.02-5.98-.15-8.97-.17-3.04-.82-6.05-.92-9.08-.16-4.99-.62-10.08.12-14.97.77-5.06.76-10.06.84-15.1.02-1.12,0-2.23,0-2.98,2.44-1.5,3.45-3.08,2.81-5.36-.76-.16-1.22-.25-1.72-.35v-4.46c2.12-.44,2.43-2.16,2.8-3.39-.81-1.81-1.5-3.35-2.22-4.95.89-.99,1.59-1.77,2.22-2.47-2.22-2.67-.09-5.04.13-7.44.23-2.64.56-5.28.85-7.91Zm125.84-73.15c2.46.13,5.32-.15,8.14.94,3.38,1.3,6.93,2.2,10.63,2.06,3.38-.12,6.71-.26,10.1-.78,4.33-.66,8.19-2.29,11.7-4.37,3.61-2.13,6.54-5.46,5.73-10.43-.1-.64-.01-1.31-.01-1.22-1.58-2.95-3.25-4.94-5.62-6.38-3.89-2.37-8.02-4.77-12.49-4.61-3.91.14-7.69-2.8-11.58-.39-.59-.59-1.18-1.18-1.79-1.79h-2.99c-3.08,3.17-6.54,5.49-11.09,4.36-.88.37-1.59.67-2.3.97-.56,1.58-1.12,3.14-1.59,4.47-.69.24-1.12.39-1.55.54,0,1.1.42,2.5-.07,3.02-2.14,2.24-.63,4.31.24,6.16,1.17,2.51,2.88,4.78,4.54,7.44Z"/>
      <path class="cls-1" d="m1,350c.33-.26.97-.55.96-.79-.38-5.53,1.37-10.7,3.15-15.72,1.89-5.36,4.28-10.54,7.21-15.53,3.59-6.13,8.18-11.52,11.84-17.56.59-.97,1.62-1.67,2.44-2.49,4.24-4.24,8.48-8.48,12.79-12.79,2.26,3.04,2.39,6.82,3.56,10.21,2.22,6.42,4.02,13.01,7.73,18.79,1.17,1.82,1.03,4.12,3.19,5.72,1.82,1.34,2.42,4.25,3.81,6.29,1.35,1.99,3.3,3.6,4.49,5.66,1.6,2.76,4.02,4.68,6.06,6.98,1.6,1.8,2.82,4.03,4.65,5.53,7.31,5.98,14.13,12.57,22.07,17.82,2.34,1.54,4.8,2.85,7.12,4.42,2.45,1.66,5.01,3.15,7.59,4.61,2.42,1.37,4.92,2.59,7.4,3.87,2.61,1.34,5.21,2.7,7.85,3.99,1.52.75,3.1,1.38,4.65,2.06.05,2.35,2.63,1.37,3.34,2.46,1.28,1.96,3.25,1.14,4.84,1.73,2.74,1.02,5.43,2.18,8.19,3.16,6.1,2.17,12.14,4.61,18.39,6.24,3.45.9,7.04,1.49,10.54,2.38,4.82,1.23,9.71,2.16,14.45,3.73,1.48.49,3.12.64,4.69.72,4.44.24,8.37,2.68,12.96,2.71,2.45.01,4.99.85,7.59.87,2.36.02,4.57.9,6.76,1.74.29.11.62.24.91.2,4.94-.7,9.69.98,14.58,1.08,5.36.11,10.67,1.39,16.09.93,3.04,1.83,6.38.93,9.58.96,11.83.11,23.67.17,35.49-.01,5.19-.08,10.37-.78,14.11-1.08,1.75,1.01,2.47,1.42,3.05,1.75-.2.59-.2,1.04-.4,1.15-4.06,2.22-8.32,4.14-12.5,6.04-5.01,2.28-10.15,4.46-15.41,6.23-4.08,1.38-7.97,3.33-12.07,4.63-1.96.62-4.21.33-6.47.46-.1.4-.21.85-.39,1.59-5.21,2.17-10.78,3.93-16.5,5.37-4.06,1.02-8.07,2.26-12.13,3.32-2.43.63-4.91.86-7.34,1.52-5.8,1.57-11.76,2.38-17.71,3.26-2.37.35-4.94.14-7.05.96-2.44.95-4.77.57-7.14.89-2.2.3-4.26,1.21-6.59,1.02-2.22-.19-4.54-.44-6.59.93-.23.15-.65.04-.99.02-9.23-.75-18.36,1.63-27.58.99-6.86-.48-13.69-1.38-20.58-.98-3.08-1.41-6.37-.84-9.58-1.04-1.71-.11-3.39-.86-5.09-.9-1.95-.05-3.75-.49-5.6-1-1.65-.45-3.62.5-5.07-1.06-4.44.69-8.36-1.73-12.65-2.16-2-.2-4.2-1.19-6.23-1.68-7.71-1.86-15.1-4.6-22.56-7.17-5.69-1.96-11.06-4.68-16.54-7.15-5.53-2.49-10.51-5.98-15.76-8.98-3.99-2.28-7.39-5.65-10.88-8.74-2.74-2.42-5.13-5.24-7.83-7.72-4.18-3.84-6.89-8.69-9.94-13.37-3.98-6.11-5.54-13.06-7.85-19.76-.51-1.49,0-3.31-.12-4.97-.03-.45-.62-.87-.95-1.3,0-3.67,0-7.33,0-11Z"/>
      <path class="cls-1" d="m251,527c-.26-.33-.5-.93-.79-.96-6.43-.57-14.93-2.75-21.19-5.52-3.37-1.5-6.77-2.96-10.11-4.53-6.89-3.24-12.83-7.78-17.89-13.46-3.84-4.31-6.19-11.65-4.93-17.37.68-3.07,2.44-5.86,5.43-8.01h7.13c1.79,1.82,3.99,3.55,4.47,6.47,4.19,4.5,8.34,9.33,14.34,11.15,5.37,1.62,10.83,3.91,16.64,3.15,3.09-.4,6.2-.85,9.27-1.63,2.48-.63,5.25-.13,8.1-.13,1.45-2.96,4.66-2.07,7.09-3.02,1.39-.55,3.61-.92,5.04.89,3.02-1.79,5.71-1.2,8.13,1.19,1.77,1.75,3.55,3.51,5.28,5.22v3.06l3.03,3.03c-.6,3.29,1.07,6.96-1.05,10.3-.49.77-1.06,1.52-1.73,2.14-.56.52-1.61.67-1.92,1.26-2.17,4.04-5.86,4.78-10.04,4.83-.42.62-.86,1.27-1.3,1.93h-23Z"/>
      <path class="cls-1" d="m394.46,495.84c-.89.23-1.75.26-2.4.64-3.37,1.95-6.58,4.19-10.05,5.92-3.44,1.71-6.95,3.32-10.46,4.88-4.4,1.95-8.88,3.52-13.4,5.09-4.11,1.43-8.54,1.7-12.54,3.52-2.23-1.74-4.19,1.18-5.76.64-2.2-.76-3.72.95-5.63.53-.49-.11-1.12.43-1.76.7-.65-.31-1.46-.7-2.3-1.1.11-.21.17-.55.36-.66,1.74-1.02,3.39-2.34,5.27-2.94,8.72-2.82,16.12-7.98,23.61-13,.8-.54,1.37-1.44,1.96-2.07h2.27c3.63-5.76,9.13-9.85,13.69-14.81,3.75-1.4,4.92-5.35,6.76-6.94,1.03-1.95,1.37-3.03,2.05-3.81,1.59-1.82,3.56-3.31,4.58-5.62.63-1.41,1.4-2.75,2.1-4.13,2.73-5.37,5.3-10.83,8.23-16.08,2.2-3.95,3.55-8.21,5.14-12.37,1.54-4.04,2.79-8.2,4.04-12.35,1.24-4.12,1.85-8.47,3.69-12.45.69-1.5.24-3.32.9-5.11,1.07-2.94.97-6.31,1.41-9.93,1.69-3.13,5.27-4.26,8.71-5.33,5.61-1.75,11.05-3.9,16.48-6.09,2.71-1.09,5.24-2.63,7.94-3.75.97-.4,2.21-.18,3.6-.26.32,7.98-1.7,15.47-2.54,23.06-.81,7.3-3.3,14.25-5.49,21.21-2.22,7.04-4.79,14-7.96,20.69-3.13,6.61-6.84,12.9-10.94,18.97-4.33,6.4-9.05,12.44-14.39,18.05-5.31,5.57-11.38,10.2-17.18,14.91Z"/>
    </g>
  </g>
</svg>