<?xml version="1.0" encoding="UTF-8"?>
<svg id="Layer_2" data-name="Layer 2" xmlns="http://www.w3.org/2000/svg" viewBox="0 0 455 455">
  <defs>
    <style>
      .cls-1 {
        fill: #7e0b81;
      }

      .cls-2 {
        fill: #8f1076;
      }

      .cls-3 {
        fill: #69088f;
      }

      .cls-4 {
        fill: #c32460;
      }

      .cls-5 {
        fill: #a81565;
      }

      .cls-6 {
        fill: #820c7d;
      }

      .cls-8 {
        fill: #7f0c80;
      }

      .cls-10 {
        fill: #760a86;
      }

      .cls-11 {
        fill: #7c147e;
      }

      .cls-13 {
        fill: #720989;
      }

      .cls-14 {
        fill: #9f146b;
      }

      .cls-15 {
        fill: #7a0b84;
      }

      .cls-16 {
        fill: #a61466;
      }

      .cls-17 {
        fill: #6f098c;
      }

      .cls-18 {
        fill: #ad1a68;
      }

      .cls-19 {
        fill: #610c76;
      }

      .cls-20 {
        fill: #860d7b;
      }

      .cls-21 {
        fill: #a11369;
      }

      .cls-22 {
        fill: #821184;
      }

      .cls-24 {
        fill: #b31d6a;
      }

      .cls-25 {
        fill: #8d0f77;
      }

      .cls-26 {
        fill: #9a126e;
      }

      .cls-27 {
        fill: #941172;
      }

      .cls-28 {
        fill: #a51467;
      }

      .cls-29 {
        fill: #fefefe;
      }
    </style>
  </defs>
  <g id="Layer_1-2" data-name="Layer 1">
    <g>
      <path class="cls-5" d="m151.55,125.46c4.15-2.26,8.3-4.52,12.45-6.78,1.39.44,3.02,1.58,4.11,1.2,3.4-1.22,6.63-2.93,9.85-4.61,2.93-1.52,5.76-3.25,8.64-4.88-1.56,1.75-2.88,3.83-4.73,5.2-5.86,4.33-11.44,9.11-10.17,17.13,1.44,9.1.79,18.26-1.49,26.65-2.49,9.16-1.06,18.09-1.92,27.07-.41,4.34,1.7,5.24,5.67,3.18,3.33-1.73,6.79-3.19,10.2-4.77-.35.82-.69,1.63-1.04,2.45-1.37,1.92-2.73,3.83-4.1,5.75-.47.61-.94,1.21-1.42,1.82-.63,1.38-1.26,2.75-1.89,4.13-.27.57-.55,1.15-.82,1.72-1.61,4.01-3.64,7.91-4.72,12.06-2.12,8.13-2.9,16.44-1.32,24.81.11,1.37.22,2.74.33,4.11.2.85.4,1.7.6,2.56.64,2.21,1.27,4.43,1.91,6.64.01.55.03,1.09.04,1.64.19.3.38.6.57.91.29.6.58,1.2.87,1.8,1.91,4.41,3.82,8.81,5.73,13.22-1.73-1.08-3.96-1.78-5.08-3.31-2.6-3.56-4.67-7.51-7.46-12.14-2.16,1.93-3.42,3.07-4.34,3.89.55,1.38.59,1.7.77,1.88,2.17,2.19,5.98,4.29.24,6.83-.21.09-.04,2.21.43,2.46,3.59,1.87,3.96,4.35,1.6,7.41-1.23,1.6-1.61,3.97-2.03,6.06-.35,1.72,0,3.58-.3,5.32-.4,2.39-2.39,5.68-1.47,6.92,3.1,4.17,1.42,8.59,1.93,12.85.45,3.73.18,7.05-4.16,7.29,0,2.45.3,4.61-.06,6.67-1.02,5.94,3.06,14.74,9.76,17.28,2.59.98,1.98,2.56,1.1,4.31-.82-.28-1.64-.56-2.46-.85-5.05-3.1-10.06-6.27-15.16-9.29-5.92-3.51-6.14-3.94-4.25-10.5.19-.65.13-1.36.19-2.04.23-.56.46-1.13.69-1.69.87-2.85,1.36-5.89,2.69-8.51,2.73-5.38.83-9.55-2.52-13.74-2.21-2.76-4.05-5.81-6.06-8.73-.21-.29-.43-.59-.64-.88,0,0,.03.03.03.03.04-.55.08-1.1.12-1.65l.66-.79c.54-.85,1.08-1.7,1.63-2.56,1.46-.24,3.73.02,4.24-.8,3.08-5,5.83-10.21,8.53-15.43,1.4-2.71.05-3.87-2.72-3.79h0c-.28-.27-.55-.53-.83-.8-4.44-2.8-8.88-5.61-13.32-8.41-2.36-1.49-4-3.32-2.52-6.28,1.56-3.12.76-5.19-2.51-6.34-4.76-3.01-9.51-6.03-14.27-9.04-.58-.29-1.15-.58-1.73-.87,0,0,.03.03.03.03-1.36-1.7-2.46-3.73-4.13-5.02-3.93-3.04-5.14-6.38-3.79-10.91,1.18-3.95,2.11-7.98,2.98-12.02.82-3.79,2.92-5.36,6.44-4.02,3.48,1.33,6.07,1,8.24-2.32.77-1.17,2.53-1.64,3.68-2.62,2.79-2.37,6.23-4.4,8.07-7.39,3.91-6.32,6.85-13.23,10.44-19.75,1.02-1.86,2.78-3.42,4.48-4.77,5.61-4.44,4.77-11.24-1.84-14.06-1.26-4.86-2.75-9.67-3.65-14.6-.36-1.97.61-4.18.98-6.28Z"/>
      <path class="cls-15" d="m326.41,304.39c.19,1.4.38,2.8.57,4.21.23,1.18.46,2.36.68,3.55,1.21,6.62,2.42,13.23,3.62,19.85-.29.07-.58.14-.86.21-.57.48-1.14.95-1.71,1.43,0,0,0,0,0,0-.26.06-.52.13-.78.21-1.39.83-2.79,1.66-4.18,2.49-.86.49-1.73.99-2.59,1.48l.02-.03c-1.71.86-3.42,1.73-5.12,2.59-.22.2-.44.39-.66.59-.57.33-1.15.67-1.72,1-.54.05-1.08.1-1.62.15-3.77-9.12-1.79-18.53-1.16-27.81.57-8.4,1.91-16.74,2.78-25.12,1.15-11.13,2.17-22.28,3.24-33.42.32-3.3.64-6.6.95-9.91-.58-5.73-1.01-11.49-1.86-17.18-.16-1.09-1.97-1.93-3.02-2.89,0-.55,0-1.11,0-1.66,5.81-.35,4.87-4.64,4.88-8.37.56-4.46,1.36-8.9,1.61-13.38.29-5.27-1.31-10.74,2.26-15.57.49-.66.22-1.88.27-2.84.38-6.54.51-13.12,1.25-19.62.34-3.01,1.91-5.86,5.61-6.34.23.03.47.04.7.03.34.56.68,1.13,1.02,1.69,1.2,1.51,2.4,3.02,3.59,4.53,0,0,0-.08,0-.08.4.5.8.99,1.21,1.49,0,.27.07.52.2.76.49.57.98,1.14,1.48,1.71l2.55,4.93c-.07.27-.09.74-.22.77-5.95,1.45-6.31,6.25-6.63,11.04-.22,3.24-.21,6.5-.5,9.73-.84,9.09-1.89,18.15-2.67,27.25-.52,6.08.14,12.38-1.23,18.23-2.48,10.53-2.98,21.1-3,31.79,0,1.65-.19,3.32-.43,4.95-.93,6.14-2.09,12.25-2.82,18.41-.43,3.7,1.31,6.43,5.08,7.54-.27.54-.53,1.08-.8,1.62Z"/>
      <path class="cls-28" d="m169.83,342.16c.87-1.75,1.49-3.33-1.1-4.31-6.7-2.54-10.78-11.34-9.76-17.28.35-2.05.06-4.22.06-6.67,4.34-.24,4.61-3.56,4.16-7.29-.51-4.26,1.17-8.68-1.93-12.85-.92-1.24,1.06-4.53,1.47-6.92.29-1.74-.05-3.6.3-5.32.42-2.09.79-4.46,2.03-6.06,2.36-3.07,1.99-5.54-1.6-7.41-.47-.25-.64-2.37-.43-2.46,5.74-2.54,1.93-4.64-.24-6.83-.18-.18-.21-.5-.77-1.88.91-.82,2.18-1.96,4.34-3.89,2.79,4.63,4.85,8.58,7.46,12.14,1.12,1.52,3.35,2.23,5.08,3.31.88,1.12,1.77,2.24,2.65,3.36.84,1.14,1.68,2.28,2.52,3.42.56.54,1.13,1.08,1.69,1.63.61.83,1.23,1.65,1.84,2.48.22.3.44.6.67.89,1.66,1.66,3.32,3.32,4.98,4.97.88.82,1.76,1.64,2.64,2.45-2.34-.17-4.69-.2-7.01-.52-6.08-.83-8.1.81-8.11,6.75,0,2.92.12,5.84-.03,8.75-.3,5.79-.59,11.59-1.17,17.36-.52,5.14-1.47,10.24-2.13,15.37-.56,4.3,1.16,7.28,4.86,9.73,3.38,2.24,8.04,3.84,7.66,9.33-.28.1-.56.19-.84.29-1.93-1.17-3.86-2.34-5.79-3.52-4.17-2.51-8.35-5.02-12.52-7.53-.32-.5-.65-1-.97-1.5Z"/>
      <path class="cls-8" d="m328.89,157.99c-3.71.48-5.27,3.33-5.61,6.34-.74,6.5-.87,13.08-1.25,19.62-.06.96.21,2.19-.27,2.84-3.57,4.83-1.97,10.3-2.26,15.57-.25,4.47-1.05,8.92-1.61,13.38-1.12-1.59-2.35-3.13-3.32-4.8-.51-.89-.81-2.03-.82-3.06-.06-4.87.01-9.75.04-14.63,4.27-2.54,5.67-9.54,2.39-13.02-3.18-3.36-6.65-6.44-9.99-9.65.84-14.48,1.68-28.96,2.54-43.44.03-.54.29-1.07.35-1.62.54-4.92,5.36-4.02,8.07-5.99,5.54,3.08,11.08,6.17,16.62,9.25.33.55.66,1.1.99,1.65,0,1.39.01,2.79.02,4.18-.57,1.95-1.13,3.9-1.7,5.85-.28,1.39-.55,2.77-.83,4.16-.67,2.22-1.34,4.43-2.01,6.65.1.86.2,1.71.3,2.57-.31,1.12-.63,2.25-.94,3.37-.23.25-.47.5-.7.76Z"/>
      <path class="cls-10" d="m327.21,302.77c-3.77-1.12-5.52-3.85-5.08-7.54.72-6.16,1.89-12.27,2.82-18.41.25-1.64.43-3.3.43-4.95.03-10.69.53-21.26,3-31.79,1.37-5.85.71-12.15,1.23-18.23.78-9.09,1.82-18.16,2.67-27.25.3-3.23.29-6.49.5-9.73.32-4.79.68-9.59,6.63-11.04.13-.03.15-.51.22-.77,2.55,5.03,5.09,10.07,7.64,15.1-.09.28-.19.56-.28.84-5.81.15-6.46,1-6.09,6.96.18,2.82.11,5.69-.21,8.49-.8,6.99-2.05,13.93-2.69,20.93-1.3,14.16-2.18,28.36-3.53,42.52-.45,4.69-.18,9.1,2.33,13.07.74,1.17,2.47,1.72,3.75,2.55-.04.53-.07,1.06-.11,1.59-.18.28-.35.57-.53.85-.4.84-.8,1.69-1.2,2.53l-5.05,7.51-5.78,6.66c-.22.07-.45.11-.67.12Z"/>
      <path class="cls-3" d="m374.88,204.88c.02,11.71.05,23.41.07,35.12-.03,4.46-.06,8.92-.08,13.38-.38,2.78-.77,5.57-1.15,8.35-.51.35-1.02.7-1.53,1.04-1.95.54-3.89,1.08-5.84,1.61-.33.2-.65.4-.98.6,0,0,.05-.07.05-.07l-2.4.33c-2.79.45-5.57.91-8.36,1.36-.28-4.36-1.03-8.75-.75-13.07.92-14.46,2.11-28.91,3.44-43.34.21-2.33,1.09-5.05,2.63-6.68,1.89-2.02,4.79-3.1,7.26-4.59,0,0,.4.06.4.06l.39-.11,1.71.3.88.65c3.76-.3,4.36,2.08,4.26,5.04Z"/>
      <path class="cls-20" d="m317.14,119.55c-2.71,1.96-7.54,1.07-8.07,5.99-.06.55-.32,1.07-.35,1.62-.86,14.48-1.7,28.96-2.54,43.44-3.27-.09-6.8-.66-7.48,4.04-3.41-2.83-7.19-4.59-11.75-4.2,1.04-6.25,2.26-12.47,3.06-18.75,1.1-8.63,2.54-17.31,2.58-25.97.03-7.14.26-13.29,8.17-16.02l.38-.13c2.51,1.42,5.01,2.84,7.52,4.26l.86.63c2.54,1.7,5.08,3.4,7.62,5.1Z"/>
      <path class="cls-27" d="m252.66,342.71c-8.62.04-17.23.07-25.85.11-.86-.32-1.72-.63-2.58-.95.45-1.82,1.22-3.62,1.29-5.46.26-6.72-.1-13.48.56-20.15.33-3.33-2.05-8.71,4.42-8.8-.17-2.15-.29-3.79-.42-5.42.56-.09,1.11-.19,1.67-.28,1.29.32,2.56.89,3.86.93,4.28.11,8.56.03,12.83.02.84.77,1.78,1.46,2.51,2.32.68.81,1.15,1.8,1.71,2.71-2.04,4.3-2.6,8.79-2.63,13.57-.05,7.3.3,14.45,2.63,21.41Z"/>
      <path class="cls-20" d="m269.41,352.84c-.32-.54-.64-1.08-.96-1.62-.26-.53-.51-1.06-.77-1.59.57-1.94,1.41-3.84,1.65-5.81.64-5.21.96-10.46,1.51-15.68.87-8.24,1.8-16.47,2.74-24.7.19-1.64.54-3.27.82-4.9,1.1-1.99,2.2-3.98,3.3-5.97l.8-.75c.3-.2.59-.41.89-.61,1.41-1.15,2.83-2.3,4.24-3.45,1.79-1.47,3.58-2.95,5.37-4.42.14-.06.24-.16.31-.29.59-.18,1.17-.37,1.76-.55-.24,1.95-.25,3.97-.78,5.84-.56,1.98-2.15,3.77-2.36,5.74-.81,7.41-1.08,14.88-1.87,22.3-.73,6.86-2.1,13.65-2.72,20.51-.36,3.91-.26,8,.53,11.82.45,2.17,2.65,4.01,4.17,5.92.19.24.99,0,1.51-.02-1.18,1.09-2.35,2.18-3.53,3.26-.58.27-1.15.54-1.73.81-1.61.64-3.23,1.28-4.84,1.93-.29-.06-.57-.13-.86-.19-1.93-1.45-3.86-2.91-5.79-4.36-1.16-1.07-2.31-2.14-3.47-3.21h.08Z"/>
      <path class="cls-13" d="m347.32,270.91c-.2.2-.28.44-.24.72-2.18,3.96-4.36,7.92-6.54,11.88-1.28-.83-3.01-1.38-3.75-2.55-2.51-3.98-2.78-8.38-2.33-13.07,1.35-14.16,2.23-28.36,3.53-42.52.64-7,1.89-13.94,2.69-20.93.32-2.8.39-5.67.21-8.49-.37-5.95.28-6.81,6.09-6.96.69,3.31,3.16,4.84,6,5.99-1.11,2.76-2.8,5.44-3.2,8.3-.73,5.32-.59,10.75-1.01,16.12-.8,10.44-1.51,20.9-2.69,31.3-.72,6.38-1.41,12.62,1.11,18.74.03.49.07.98.1,1.47Z"/>
      <path class="cls-14" d="m214.88,343.69c.45,3.68-3.75,2.96-4.88,5.15-.29.23-.59.46-.88.69-.28.28-.56.55-.84.83-2.22,2.2-4.44,4.41-6.67,6.61-1.13.86-2.26,1.72-3.4,2.58-.26.01-.51.07-.75.18-1.39-.93-2.77-1.86-4.16-2.79-.14-1.63-.17-3.27-.48-4.87-.2-1.03-1.18-1.99-1.15-2.96.17-5.1-.5-10.55,1.11-15.2,2.38-6.89,2.73-13.62,2.21-20.66-.26-3.51.04-7.07-.06-10.6-.14-4.75,3-7.76,7.74-7.48,1.03.06,2.11-.55,3.16-.85.54.05,1.09.1,1.63.15,3.08,1.31,6.16,2.61,9.24,3.92.25.1.51.18.78.24l-.04-.04c.04.26.09.51.16.76-6.18,2.36-9.87,6.31-8.61,13.45.04.24-.21.52-.24.79-.99,7.05-2.47,14.08-2.81,21.17-.4,8.49-2.06,9.11,8.91,8.95Z"/>
      <path class="cls-25" d="m300.75,109.69c-7.9,2.73-8.13,8.88-8.17,16.02-.04,8.66-1.48,17.34-2.58,25.97-.8,6.28-2.03,12.5-3.06,18.75-1.93.05-3.86.09-5.79.14-.07-.23-.11-.46-.11-.69-.52-1.82-1.1-3.62-1.53-5.46-.85-3.56-2.27-7.14-2.28-10.72,0-6.47,1.17-12.94,1.28-19.42.21-11.77.89-23.36,6.81-33.95.81.3,1.63.59,2.44.89,4.18,2.55,8.37,5.1,12.55,7.65.15.28.29.56.44.83Z"/>
      <path class="cls-25" d="m274.4,298.54c-.28,1.63-.63,3.26-.82,4.9-.94,8.23-1.87,16.46-2.74,24.7-.55,5.22-.87,10.47-1.51,15.68-.24,1.98-1.08,3.88-1.65,5.81-.59-.44-1.19-.87-1.78-1.31-.07-.14-.17-.24-.31-.31-1.21-1.18-2.42-2.35-3.63-3.53-3.1-.59-6.2-1.18-9.3-1.77-2.33-6.96-2.67-14.11-2.63-21.41.03-4.78.59-9.27,2.63-13.57,2.69-2.54,5.41-4.36,9.52-2.77,1.15.44,3.17-1.06,4.67-1.9,2.57-1.42,5.04-3.01,7.55-4.54Z"/>
      <path class="cls-27" d="m267.81,112.93c.24-.03.48-.07.71-.12-.13,2.53.23,5.21-.46,7.57-3.94,13.49-5.67,27.18-4.59,41.21-6.95-1.23-13.89-2.45-20.84-3.68.84-5.73,2.28-11.45,2.36-17.19.1-7.47.09-14.67,6-20.3,3.23-.54,6.39-1.2,7.52-4.94,1.12.21,2.24.43,3.36.64.58-.19,1.15-.38,1.73-.57,1.41-.87,2.82-1.74,4.22-2.61Z"/>
      <path class="cls-2" d="m263.46,161.59c-1.09-14.03.64-27.72,4.59-41.21.69-2.37.34-5.04.46-7.57.32-.52.64-1.03.96-1.55,4.16-3.89,8.32-7.77,12.48-11.66.56-.08,1.11-.16,1.67-.24.57.32,1.13.65,1.7.97-5.92,10.59-6.61,22.18-6.81,33.95-.11,6.48-1.29,12.95-1.28,19.42,0,3.57,1.43,7.15,2.28,10.72.44,1.84,1.02,3.64,1.53,5.46-1.66-.82-3.31-1.64-4.97-2.47-4.2-1.94-8.4-3.88-12.6-5.82Z"/>
      <path class="cls-26" d="m214.88,343.69c-10.97.16-9.32-.46-8.91-8.95.34-7.09,1.82-14.12,2.81-21.17.04-.27.29-.55.24-.79-1.26-7.13,2.42-11.09,8.61-13.45h.38s.36-.11.36-.11c.27.07.55.14.82.22,1.12.2,2.23.39,3.35.59,1.66.39,3.31.79,4.97,1.18.58.18,1.16.35,1.75.53.28.1.56.2.84.3.13,1.64.25,3.28.42,5.42-6.47.09-4.09,5.46-4.42,8.8-.66,6.67-.3,13.44-.56,20.15-.07,1.83-.84,3.64-1.29,5.46-1.39.09-2.79.19-4.18.28-1.13.04-2.25.07-3.38.11-.26.2-.52.4-.78.59-.34.28-.68.55-1.02.83Z"/>
      <path class="cls-17" d="m347.21,269.43c-2.52-6.12-1.83-12.36-1.11-18.74,1.18-10.4,1.89-20.86,2.69-31.3.41-5.37.28-10.8,1.01-16.12.39-2.86,2.09-5.54,3.2-8.3,1.66.26,3.32.53,4.98.79.86.2,1.71.39,2.57.59,1.38.36,2.75.72,4.13,1.08.83.25,1.65.5,2.48.76.02.24.05.49.09.73-2.46,1.49-5.36,2.57-7.26,4.59-1.53,1.64-2.41,4.36-2.63,6.68-1.32,14.43-2.52,28.88-3.44,43.34-.27,4.32.47,8.71.75,13.07-1.12.38-2.23.77-3.35,1.15-1.11.57-2.23,1.13-3.34,1.7-.25-.09-.51-.1-.76-.02Z"/>
      <path class="cls-18" d="m154.22,146.34c6.61,2.82,7.45,9.63,1.84,14.06-1.7,1.34-3.45,2.91-4.48,4.77-3.6,6.52-6.54,13.43-10.44,19.75-1.85,2.99-5.28,5.01-8.07,7.39-1.15.98-2.91,1.45-3.68,2.62-2.17,3.32-4.76,3.65-8.24,2.32-3.52-1.34-5.62.23-6.44,4.02-.87,4.03-1.8,8.07-2.98,12.02-1.35,4.53-.14,7.87,3.79,10.91,1.67,1.29,2.77,3.33,4.13,5.02-2.56-1.16-4.87-2.38-8.04-1.09-2.55,1.03-4.64.09-4.52-3.69.25-7.91.02-15.83-.01-23.75-.27-3.68,1.96-5.21,5.11-5.96.84-.23,1.68-.47,2.52-.7,2.51-.61,5.01-1.22,7.52-1.82,2.8-.58,5.6-1.16,8.4-1.74.56-.21,1.13-.41,1.69-.62.27,0,.53-.05.78-.16,1.64-2.75,3.29-5.5,4.93-8.25.29-.58.57-1.16.86-1.75l-.04.03c.27-.55.55-1.1.82-1.65.55-1.11,1.11-2.22,1.66-3.34.32-.55.64-1.11.96-1.66h-.01c3.62.26,3.29-1.84,2.52-4.21.09-.27.17-.54.26-.82.2-.28.39-.56.59-.85,1.41-1.82,2.96-3.55,4.21-5.48,3.03-4.66,9.21-8.48,4.39-15.39Z"/>
      <path class="cls-24" d="m97.97,258.24c4.17,2.03,8.34,4.06,12.51,6.1.82,1.08,1.65,2.15,2.47,3.23-.55,1.1-1.09,2.19-1.64,3.29-1.41,2.25-2.82,4.49-4.23,6.74-2.1,3.81-4.7,2.73-7.39.75-1.66-.81-3.32-1.62-4.99-2.43-.59-.55-1.1-1.27-1.8-1.62-3.06-1.56-2.74-3.43-1.12-6.02,1.31-2.09,1.97-4.59,2.91-6.91,0,0,.19-.07.19-.07.4-.13.81-.26,1.21-.39.28-.56.56-1.12.83-1.68.34-.33.68-.66,1.02-.99Z"/>
      <path class="cls-18" d="m189.96,103.73c2.4-1.19,4.86-2.26,7.17-3.6,4.59-2.66,6.23-2.63,9.75,1.02,4.75,4.93,9.37,9.99,14.04,14.99-1.73-.18-3.82.19-5.11-.66-2.72-1.79-4.98-4.27-7.5-6.38-2.68-2.24-5.02-5.23-9.16-4.58-4.18,1.95-8.36,3.9-12.54,5.85-2.87,1.63-5.7,3.36-8.64,4.88-3.22,1.67-6.45,3.39-9.85,4.61-1.09.39-2.73-.75-4.11-1.2.85-.58,1.7-1.15,2.55-1.73.58-.23,1.16-.45,1.74-.68,1.37-.89,2.74-1.78,4.11-2.67.31-.23.61-.45.92-.68,2.76-1.47,5.53-2.94,8.29-4.41.28-.21.57-.41.85-.62,0,0-.02.01-.02.01.86-.56,1.72-1.11,2.58-1.67,1.09-.55,2.18-1.1,3.27-1.66.56-.28,1.11-.57,1.67-.85Z"/>
      <path class="cls-29" d="m347.27,188.15c-2.55-5.03-5.09-10.07-7.64-15.1-.85-1.64-1.7-3.29-2.55-4.93-.49-.57-.98-1.14-1.48-1.71-.13-.24-.2-.49-.2-.76-.4-.5-.8-.99-1.21-1.49,0,0,0,.08.01.08,1.24-2.43-.39-3.5-2.13-4.53,1.63.33,4.01.09,4.76,1.08,2.53,3.35,4.49,7.13,6.66,10.75.55-.16,1.09-.33,1.64-.49.11-1.23.08-2.5.38-3.68.21-.85.7-1.96,1.37-2.26.49-.22,1.83.49,2.2,1.12,2.08,3.63,4.17,7.27,5.85,11.09.7,1.58.27,3.41-2.44,2.75-1.01-.25-2.13-.04-3.4-.04.67,5.73,6.84-.78,7.79,4.29-2.58,2.37-5.68,4.05-9.64,3.84Z"/>
      <path class="cls-18" d="m119.67,256.58c-2.53-.96-5.06-1.89-7.57-2.88-.83-.33-1.61-.78-2.41-1.18-.88-1.4-1.76-2.81-2.65-4.21,0,0,.31.08.31.08.22-.3.43-.6.65-.9,1.95-3.12,3.91-6.23,5.86-9.35.56.01,1.12.02,1.68.03.56.05,1.11.1,1.67.15.27.22.55.45.82.67.55.36,1.11.71,1.66,1.07q7.31,4.53,2.71,12.04c-.91,1.49-1.82,2.98-2.73,4.46Z"/>
      <path class="cls-29" d="m386.44,215.75c.27,5.16.76,10.32.73,15.48-.01,2.37-1.01,4.73-1.57,7.1-3.3-.44-4.09-1.68-3.84-5.49.53-8.25-.37-16.58-.5-24.87-.04-2.55.36-5.16.91-7.66.18-.8,1.43-1.71,2.32-1.87.57-.1,1.82.98,1.98,1.7.8,3.51,2.85,6.92.54,10.74-.77,1.27-.41,3.22-.57,4.86Z"/>
      <path class="cls-24" d="m115.57,282.73c1.88-1.99,3.81-1.94,6.02-.4,2.72,1.89,5.59,3.57,8.39,5.34-1.47,2.8-2.93,5.59-4.4,8.39-.34.57-.68,1.15-1.02,1.72-.32-.04-.51.1-.56.43-.32.16-.64.33-.95.49-.28.22-.57.44-.85.66-2.19-1.12-4.38-2.24-6.57-3.36-.3-.22-.6-.45-.9-.67l-.82-.22c-2.81-2.18-3.1-4.66-.87-7.44.85-1.65,1.7-3.29,2.55-4.94Z"/>
      <path class="cls-24" d="m88.63,289.3c-.26-.01-.5.06-.72.21-.3.21-.6.42-.9.63-3.31-.02-6.61-.04-9.92-.06-.33-1.92-.67-3.85-1-5.77,0-.84,0-1.67,0-2.51.08-1.33.17-2.66.25-3.98,1.92-.12,3.83-.24,5.75-.36,2.38.45,5.45-.77,6.57,2.72l.26,4.14c-.09,1.66-.18,3.31-.28,4.97Z"/>
      <path class="cls-24" d="m94.5,291.01c.06-.79.12-1.57.19-2.36,3.92-.06,7.85-.11,11.77-.17,0,.28.01.57.02.85.24,1.46.53,2.91.7,4.38.42,3.72-.54,6.31-5.02,5.81-1.39,0-2.79,0-4.18,0-3.34-.25-3.5-2.64-3.48-5.16,0-1.11,0-2.23.01-3.34Z"/>
      <path class="cls-29" d="m317.14,119.55c-2.54-1.7-5.08-3.4-7.62-5.1,1.34-.38,2.99-1.45,3.95-1.01,3.06,1.41,5.97,3.25,8.73,5.21,1.26.9,2.06,2.46,3.13,3.81,5.3-.75,8.06,1.26,8.42,6.33-5.54-3.08-11.08-6.17-16.62-9.25Z"/>
      <path class="cls-24" d="m86.24,307.63c-4.8-.4-6.5-2.07-6.72-6.59.58-.54,1.17-1.09,1.75-1.63.26-.29.53-.59.79-.88,0,0,.02-.03.02-.03.83-.34,1.65-.68,2.48-1.02.58.29,1.17.58,1.75.86,1.14.9,2.28,1.8,3.42,2.7,0,.84-.02,1.67-.03,2.51-1.16,1.36-2.31,2.72-3.47,4.08Z"/>
      <path class="cls-29" d="m335.11,151.39c.65-.33,1.96-1.51,3.23-1.46.84.03,1.69,1.77,2.39,2.84,1.34,2.03,2.66,4.08,3.84,6.2.41.74.65,1.76.48,2.55-.07.33-1.7.79-2.13.48-1.4-.98-2.82-2.11-3.79-3.5-1.39-1.97-2.41-4.21-4.02-7.13Z"/>
      <path class="cls-29" d="m332.93,331.15c-.55.28-1.09.56-1.64.84-1.21-6.62-2.41-13.23-3.62-19.85-.22-1.18-.45-2.36-.68-3.55,2.48,4.68,5.49,9.17,7.21,14.11.83,2.38-.77,5.6-1.27,8.44Z"/>
      <path class="cls-29" d="m281.96,99.6c-4.16,3.89-8.32,7.77-12.48,11.66.34-1.45.32-3.14,1.1-4.29,1.59-2.33,3.73-4.28,5.44-6.55,1.79-2.39,3.72-2.35,5.95-.82Z"/>
      <path class="cls-29" d="m374.88,204.88c.1-2.96-.5-5.34-4.26-5.04-.06-.23-.1-.46-.11-.7.89-3.49,2.92-3.62,5.86-2.29,3.46,1.56,2.21,3.38.66,5.37-.7.9-1.43,1.77-2.14,2.65Z"/>
      <path class="cls-29" d="m300.32,108.86c-4.18-2.55-8.37-5.1-12.55-7.65,0-.85,0-1.69.01-2.54,3.4,1.87,6.94,3.51,10.11,5.71,1.25.86,1.64,2.95,2.43,4.48Z"/>
      <path class="cls-29" d="m167.95,108.19c-.76,3.33-1.32,6.07-5.16,4.94-.83-.24-2.11,1.46-3.31,1.98-1.03.44-2.23.47-3.35.67-.13-.54-.25-1.08-.38-1.62,4.07-1.99,8.14-3.98,12.21-5.97Z"/>
      <path class="cls-29" d="m168.21,108.71c.56-1.67,1.11-3.34,1.67-5.02,1.39-.28,2.79-.56,4.18-.84.74.47,1.48.95,2.23,1.42-.57.63-1.03,1.51-1.75,1.85-2.06.98-4.22,1.74-6.33,2.58Z"/>
      <path class="cls-29" d="m144.8,125.43c-.56,1.39-1.11,2.79-1.67,4.18-1.11-.84-2.23-1.67-3.34-2.51v-2.51c1.11-.28,2.23-.56,3.34-.84l1.67,1.67Z"/>
      <path class="cls-29" d="m366.26,189.32c-1.54.2-3.09.49-4.63.47-.22,0-.43-1.5-.64-2.31,1.65-.26,3.29-.52,4.94-.79.11.87.22,1.75.33,2.62Z"/>
      <path class="cls-29" d="m308.65,113.82c-2.51-1.42-5.01-2.84-7.52-4.26,4.69-1.62,5.44-1.19,7.52,4.26Z"/>
      <path class="cls-29" d="m371.58,190.97c1.62-.17,3.24-.39,4.86-.41.12,0,.26,1.38.4,2.12-1.65.25-3.3.5-4.96.75-.1-.82-.2-1.64-.3-2.46Z"/>
      <path class="cls-29" d="m206.67,93.66l-2.51-2.51c1.38-.37,2.76-.74,4.14-1.11-.54,1.21-1.09,2.41-1.63,3.62Z"/>
      <path class="cls-29" d="m262.69,110.38c-2.33-.13-5.01.27-5.02-3.34,2.29.19,5.55-1.08,5.02,3.34Z"/>
      <path class="cls-29" d="m190.78,98.68c-.28.28-.56.56-.84.84-1.2-.06-2.41-.12-3.61-.19-.16-.27-.33-.54-.49-.81,1.01-.77,1.95-1.73,3.09-2.16.28-.11,1.22,1.5,1.85,2.32Z"/>
      <path class="cls-29" d="m293.76,93.43c2.16,1.37,3.7,2.35,5.26,3.33-3.1,1.8-4.18,1.28-5.26-3.33Z"/>
      <path class="cls-29" d="m232.59,107.87c-1.95.56-3.9,1.11-5.85,1.67.83-4.48,3.58-2.25,5.85-1.67Z"/>
      <path class="cls-29" d="m332.23,144.65c.28-1.39.55-2.77.83-4.16.77.53,1.54,1.05,2.31,1.58-1.05.86-2.09,1.72-3.14,2.58Z"/>
      <path class="cls-29" d="m360.54,196.37c-.86-.2-1.71-.39-2.57-.59,1.92-2.64,3.88-2.63,5.89-.1-1.11.23-2.21.46-3.32.69Z"/>
      <path class="cls-29" d="m282.76,92.82c-1.15-1.98-.35-2.65,1.67-2.51.45.37.9.74,1.34,1.11-1.01.47-2.01.93-3.02,1.4Z"/>
      <path class="cls-29" d="m309.83,102.83c.66.81,1.32,1.61,1.99,2.42-.41.27-1.07.86-1.18.77-.76-.62-1.4-1.38-2.08-2.1.43-.36.85-.73,1.28-1.09Z"/>
      <path class="cls-29" d="m338.98,313.53c-.81-.22-1.63-.39-2.39-.72-.08-.04.19-.92.3-1.41.84.23,1.69.46,2.53.69-.15.48-.3.96-.44,1.44Z"/>
      <path class="cls-29" d="m334.76,134.63c0-1.39-.01-2.79-.02-4.18,2.44,1.38,2.43,2.78.02,4.18Z"/>
      <path class="cls-29" d="m267.81,112.93c-1.41.87-2.82,1.74-4.22,2.61.1-2.99,2.27-2.63,4.22-2.61Z"/>
      <path class="cls-29" d="m330.53,153.87l-.3-2.57c.57.46,1.15.91,1.72,1.37-.47.4-.95.8-1.42,1.2Z"/>
      <path class="cls-29" d="m189.96,103.73c-.56.28-1.11.57-1.67.85.55-.85,1.1-1.71,1.65-2.56,0,.57,0,1.14.01,1.71Z"/>
      <path class="cls-29" d="m314.45,105.98c.18.36.57.83.47.98-.23.33-.67.58-1.07.7-.12.03-.4-.5-.61-.77.28-.21.56-.43,1.21-.91Z"/>
      <path class="cls-29" d="m185.03,106.24c-.86.56-1.72,1.11-2.58,1.67.86-.56,1.72-1.11,2.58-1.67Z"/>
      <path class="cls-29" d="m327.21,302.77c.23-.02.45-.06.67-.12-.49.58-.98,1.16-1.47,1.74.27-.54.53-1.08.8-1.62Z"/>
      <path class="cls-18" d="m119.63,229.19c.58.29,1.15.58,1.73.87-.58-.29-1.15-.58-1.73-.87Z"/>
      <path class="cls-29" d="m168.29,116.27c-.58.23-1.16.45-1.74.68.58-.23,1.16-.45,1.74-.68Z"/>
      <path class="cls-17" d="m370.51,199.14c.02.24.05.47.11.7-.29-.22-.59-.43-.88-.65.25-.13.51-.15.77-.05Z"/>
      <path class="cls-29" d="m173.32,112.92c-.31.23-.61.45-.92.68.31-.23.61-.45.92-.68Z"/>
      <path class="cls-29" d="m182.47,107.9c-.28.21-.57.41-.85.62.28-.21.57-.41.85-.62Z"/>
      <path class="cls-16" d="m186.6,110.38c4.18-1.95,8.36-3.9,12.54-5.85-.83,3.35-2.08,6.66-2.41,10.05-1.14,11.94-.06,24.09-3.42,35.83-.15.52-.02,1.11-.02,1.67,0,3.34,0,6.68,0,10.03.02,5.82,2.59,7.27,7.9,4.67.73-.36,1.98.33,2.99.54-1.69,1.35-3.38,2.69-5.07,4.04-.88.59-1.75,1.17-2.63,1.76-1.36,1.08-2.71,2.16-4.07,3.24-1.95,2.24-3.9,4.47-5.86,6.71-.8.59-1.6,1.19-2.4,1.78-3.4,1.58-6.87,3.04-10.2,4.77-3.96,2.06-6.08,1.16-5.67-3.18.85-8.98-.57-17.91,1.92-27.07,2.28-8.38,2.93-17.55,1.49-26.65-1.27-8.02,4.32-12.8,10.17-17.13,1.85-1.37,3.17-3.45,4.73-5.2Z"/>
      <path class="cls-29" d="m168.85,237.56c5.04-.02,10.08-.05,15.12-.07.12.23.17.48.17.74.14,2.07-4.71,5.39,1.48,5.95.05.28.1.56.15.83,0,.84,0,1.67,0,2.51-1.29-.07-2.57-.14-4.17-.23,1.1,3.97,3.18,6.38,7.52,6.08.32.58.64,1.15.96,1.73-.09.54-.18,1.08-.27,1.62-4.44-.02-2.82,2.79-2.35,5.06.05,1.1.09,2.21.14,3.31.17.56.35,1.11.52,1.67-.43.64-.85,1.27-1.28,1.91,1.12.45,2.24.9,3.36,1.34.51.58,1.02,1.15,1.53,1.73l-10.18.06-2.65-3.36c-1.91-4.41-3.82-8.81-5.73-13.22.02-.61.04-1.22.06-1.84.45-.37.91-.73,1.36-1.1-.73-.47-1.47-.93-2.2-1.4-.24,0-.47,0-.71,0-.64-2.21-1.27-4.43-1.91-6.64-.2-.85-.4-1.7-.6-2.56-.11-1.37-.22-2.74-.33-4.11Z"/>
      <path class="cls-24" d="m144.76,280.96c2.86-5.14,5.78-10.25,8.54-15.44.74-1.4,1.02-3.05,1.5-4.59,2.77-.07,4.12,1.09,2.73,3.79-2.69,5.23-5.45,10.43-8.53,15.43-.51.83-2.78.56-4.24.8Z"/>
      <path class="cls-29" d="m186.6,188.99c-.95-1-1.25-3.31-3.48-1.71.35-.82.69-1.63,1.04-2.45.8-.59,1.6-1.19,2.4-1.78,1.92,1.97,2.91,3.94.04,5.94Z"/>
      <path class="cls-24" d="m154.81,260.93c-.28-.27-.55-.53-.83-.8.28.27.55.53.83.8Z"/>
      <path class="cls-24" d="m142.47,284.31c.22-.26.44-.53.66-.79l-.66.79Z"/>
      <path class="cls-1" d="m311.97,342.84c-.27.05-.54.12-.81.21-.3.2-.6.41-.9.61-1.37.82-2.75,1.64-4.12,2.46-.55.3-1.11.6-1.66.91,0,0,0,0,0,0-.84.53-1.69,1.07-2.53,1.6-.86.43-1.73.85-2.59,1.28-1.06-2.05-3.07-4.13-3.03-6.16.18-9.51.93-19.02,1.49-28.52.07-1.1.26-2.19.41-3.28.97-7.08,1.97-14.15,2.92-21.24.59-4.36,1.12-8.72,1.68-13.08.56-1.25,1.08-2.52,1.68-3.76,2.33-4.82,4.72-9.61,7.02-14.43,2.16-4.51,4.24-9.06,6.35-13.59-.32,3.3-.64,6.6-.95,9.91-1.08,11.14-2.09,22.28-3.24,33.42-.87,8.38-2.21,16.73-2.78,25.12-.63,9.28-2.62,18.69,1.16,27.81-.03.24-.06.49-.09.73Z"/>
      <path class="cls-22" d="m317.88,245.85c-2.11,4.53-4.19,9.08-6.35,13.59-2.31,4.83-4.69,9.62-7.02,14.43-.6,1.23-1.12,2.5-1.68,3.76-2.73.28-5.47.56-8.2.84.53-.83,1.06-1.66,1.58-2.49,5.85-5.96,9.47-13.23,12.36-20.94.55-1.67,1.11-3.35,1.66-5.02.62-3.06,1.24-6.11,1.85-9.17.21-1.4.42-2.81.63-4.21,0-2.79,0-5.58,0-8.36.09-.84.19-1.67.28-2.51,1.05.96,2.85,1.8,3.02,2.89.85,5.69,1.28,11.45,1.86,17.18Z"/>
      <path class="cls-22" d="m313.78,193.26c-.03,4.88-.1,9.75-.04,14.63.01,1.03.31,2.17.82,3.06.97,1.68,2.2,3.21,3.32,4.8-.01,3.73.93,8.02-4.88,8.37-.09-.28-.19-.56-.28-.84l-3.19-15.89c-.89-2.23-1.77-4.46-2.66-6.68.61-1.1,1.22-2.2,1.83-3.29,1.64-1.43,3.28-2.86,4.92-4.29l.16.15Z"/>
      <path class="cls-29" d="m321.18,337.77c-.27,4.5-1.08,5.03-5.04,3.27.02-.23-.01-.46-.09-.67,1.71-.86,3.42-1.73,5.12-2.59Z"/>
      <path class="cls-29" d="m326.24,338.67h-1.67c-.27-.79-.54-1.57-.81-2.36,1.39-.83,2.79-1.66,4.18-2.49.27.22.54.44.8.66-.83,1.39-1.67,2.79-2.5,4.18Z"/>
      <path class="cls-29" d="m313.67,341.95c0,.3.02.6.02.9-.57,0-1.15-.01-1.72-.02.03-.24.06-.49.08-.73.54-.05,1.08-.1,1.62-.15Z"/>
      <path class="cls-1" d="m316.05,340.36c.08.22.11.44.09.67l-.38.04s-.36-.13-.36-.13c.22-.2.44-.39.66-.59Z"/>
      <path class="cls-21" d="m200.82,290.9c.2.18.43.23.69.18,1.41.86,2.83,1.71,4.24,2.57,0,0-.04-.05-.04-.05.03.24.08.48.15.71-1.05.3-2.13.91-3.16.85-4.74-.28-7.88,2.73-7.74,7.48.1,3.53-.2,7.08.06,10.6.52,7.04.17,13.77-2.21,20.66-1.6,4.65-.94,10.1-1.11,15.2-.03.97.95,1.94,1.15,2.96.3,1.6.33,3.24.48,4.87l-.38.11-.39-.02c-.87-.87-1.73-1.74-2.6-2.61.38-5.49-4.28-7.1-7.66-9.33-3.7-2.45-5.42-5.44-4.86-9.73.67-5.13,1.61-10.23,2.13-15.37.58-5.77.88-11.57,1.17-17.36.15-2.91.03-5.83.03-8.75,0-5.94,2.03-7.58,8.11-6.75,2.32.32,4.67.35,7.01.52.25.01.5.05.74.12.57.48,1.14.97,1.71,1.45.22.15.46.21.73.17.59.51,1.19,1.02,1.78,1.53Z"/>
      <path class="cls-29" d="m196.6,287.76c-.24-.06-.49-.1-.74-.12-.88-.82-1.76-1.64-2.64-2.45,2.7-2.79,3.54-.74,4.25,1.64-.29.31-.58.62-.87.93Z"/>
      <path class="cls-29" d="m184.06,275.22c.56.54,1.13,1.08,1.69,1.63-.56-.54-1.13-1.08-1.69-1.63Z"/>
      <path class="cls-22" d="m298.69,174.63c.68-4.7,4.21-4.13,7.48-4.04,3.34,3.2,6.82,6.28,9.99,9.65,3.29,3.48,1.88,10.48-2.39,13.02,0,0-.16-.15-.16-.15-.17-.36-.52-.75-.48-1.09.89-7.81-.61-11.26-7.06-14.67-2.28-1.21-4.98-1.63-7.49-2.41l.11-.32Z"/>
      <path class="cls-29" d="m365.43,264.92c-.4.57-.81,1.14-1.21,1.7-.4-.46-.79-.92-1.19-1.38.8-.11,1.6-.22,2.4-.33Z"/>
      <path class="cls-29" d="m366.36,264.39c-.33.2-.65.4-.98.6.33-.2.65-.4.98-.6Z"/>
      <path class="cls-29" d="m185.64,215.75c-4.3.1-.87-3.14-2.29-4.91-1.41.21-3.16.84-4.79.6-1.49-.22-2.85-1.36-4.26-2.1.79-.95,1.76-1.81,2.33-2.88,1.31-2.44,3.15-4.89,3.45-7.5.51-4.4,3.52-6.21,6.53-8.3,1.1,1.07,2.21,2.14,3.31,3.2.67-1.46,1.27-2.96,2.04-4.36.67-1.22,1.37-2.51,2.34-3.47,2.53-2.52,5.22-4.89,7.85-7.32-.35-.54-.7-1.08-1.05-1.62-1.74.46-3.51.81-5.2,1.41-2.19.79-3.52.51-3.47-2.16,1.36-1.08,2.71-2.16,4.07-3.24.88-.59,1.75-1.17,2.63-1.76,1.69-1.35,3.38-2.69,5.07-4.04l1.48-.11c.33-.27.66-.54.99-.81,0,0-.01.02-.01.02.28-.21.56-.42.84-.63,6.14-2.06,12.28-4.13,18.42-6.19,5.57-.56,11.15-1.11,16.72-1.67,6.95,1.23,13.89,2.45,20.84,3.68,4.2,1.94,8.4,3.88,12.6,5.82-.36,1.35-.72,2.69-1.08,4.04,1.52-.17,3.05-.32,4.57-.51.54-.07,1.06-.24,1.59-.37,1.93-.05,3.86-.09,5.79-.14,4.56-.39,8.35,1.37,11.75,4.2,0,0-.11.32-.11.32-.54,1.56-1.08,3.12-1.62,4.69-4.06,2.92-6.62,6.54-5.63,11.86-.09.8-.19,1.59-.28,2.39-1.09.27-2.19.54-3.28.8-.6-.51-1.2-1.01-1.8-1.52-.23-.24-.47-.48-.7-.72-.51-.6-1.01-1.19-1.52-1.79-.89-.82-1.79-1.63-2.68-2.45-.3-.29-.59-.58-.89-.87-.82-.83-1.64-1.66-2.45-2.49-.28-.29-.55-.58-.83-.88-.28-.06-.57-.12-.85-.17-.31-.21-.62-.42-.92-.63-.24-.03-.47-.06-.71-.09-1.13-.87-2.25-1.73-3.38-2.6-.28-.23-.56-.46-.84-.68,0,0,0,.01,0,.01-.32-.27-.64-.55-.96-.82-.51-.03-1.02-.05-1.53-.08-2.23-1.04-4.47-2.09-6.7-3.13-3.63-.99-7.27-1.98-10.9-2.97-.26.02-.51.05-.77.07-.29.02-.57.04-.86.06-.25-.66-.51-1.32-.76-1.97-.32.48-.64.95-.96,1.43-.55-.1-1.1-.2-1.64-.3-.27,0-.53,0-.8,0-4.01.1-8.01.21-12.02.31-.73.26-1.46.52-2.18.77-1.95.55-3.9,1.11-5.85,1.66-.84.19-1.68.38-2.51.57-8.84,3.12-15.96,8.76-22.48,15.28l-2.61,2.53c-1.09,1.38-2.18,2.77-3.27,4.15-.79.3-1.59.6-2.38.89.39.59.78,1.18,1.18,1.77.03.34-.12.54-.45.62-.3.34-.61.67-.91,1.01-.25.53-.5,1.05-.75,1.58-4.46-.18-1.63,2.64-1.75,4.25.06.27-.01.51-.2.71-.96.5-1.91,1-2.87,1.5.48.34.95.69,1.43,1.03-.35,1.67-.69,3.33-1.04,5Zm21.5-44.34c-.94,1.43-1.81,2.21-1.89,3.07-.05.5,1.47,1.72,1.72,1.58.84-.45,1.68-1.29,2.02-2.16.15-.39-.88-1.24-1.85-2.49Zm9.69-.59l-1.28-1.09c-.66.8-1.33,1.61-1.99,2.41.41.27,1.07.86,1.18.77.76-.62,1.4-1.38,2.08-2.09Zm-34.92,35.98c.53-.61,1.08-.96,1.1-1.34.02-.39-.47-.81-.74-1.21-.46.36-1.04.65-1.31,1.11-.11.18.48.77.94,1.44Zm1.82-12.05c-.47.76-.93,1.2-.93,1.62,0,.27.76.82,1.05.75.38-.1.82-.67.87-1.09.04-.31-.5-.68-.99-1.28Z"/>
      <path class="cls-2" d="m267.81,296.91c3.3-1.45,6.59-2.89,9.89-4.34-1.1,1.99-2.2,3.98-3.3,5.97-2.51,1.52-4.98,3.11-7.55,4.54-1.5.83-3.52,2.34-4.67,1.9-4.11-1.59-6.83.22-9.52,2.77-.56-.91-1.02-1.9-1.71-2.71-.73-.86-1.66-1.56-2.51-2.32.29-.31.58-.63.87-.94.57-.03,1.13-.07,1.7-.1.3-.2.59-.4.89-.59,3.61-.81,7.22-1.62,10.83-2.44,1.69-.58,3.39-1.15,5.08-1.73Z"/>
      <path class="cls-6" d="m294.63,278.47c2.73-.28,5.47-.56,8.2-.84-.56,4.36-1.09,8.73-1.68,13.08-.96,7.08-1.95,14.16-2.92,21.24-.15,1.09-.34,2.18-.41,3.28-.56,9.5-1.31,19.01-1.49,28.52-.04,2.03,1.97,4.11,3.03,6.16-1.65.93-3.31,1.86-4.96,2.79-.84.57-1.67,1.13-2.51,1.7-.79.07-1.57.13-2.36.2-.52.02-1.32.26-1.51.02-1.51-1.91-3.72-3.74-4.17-5.92-.79-3.82-.89-7.91-.53-11.82.63-6.86,2-13.65,2.72-20.51.79-7.42,1.06-14.89,1.87-22.3.22-1.97,1.8-3.75,2.36-5.74.53-1.87.54-3.89.78-5.84.43-.61.86-1.21,1.29-1.82,0,0,.14-.13.13-.13.71-.69,1.42-1.38,2.13-2.07Z"/>
      <path class="cls-29" d="m291.89,354.4c-.19,4.63-1.09,5.16-5.89,3.47,1.18-1.09,2.35-2.18,3.53-3.26.79-.07,1.57-.13,2.36-.2Z"/>
      <path class="cls-2" d="m278.5,291.82c.3-.2.59-.41.89-.61-.3.2-.59.41-.89.61Z"/>
      <path class="cls-29" d="m205.85,294.31c-.07-.23-.12-.47-.15-.71.59.29,1.18.57,1.78.86-.54-.05-1.09-.1-1.63-.15Z"/>
      <path class="cls-26" d="m242.63,157.91c-5.57.56-11.15,1.11-16.72,1.67-.51-.76-.85-1.76-1.55-2.25-5.26-3.68-6.09-5.64-4.75-11.75.7-3.19,1.96-6.38,1.99-9.58.06-6.28,1-12.02,5.97-16.41,7.8.28,15.61.56,23.41.84-5.91,5.63-5.9,12.83-6,20.3-.08,5.74-1.52,11.46-2.36,17.19Z"/>
      <path class="cls-14" d="m250.98,120.42c-7.8-.28-15.61-.56-23.41-.84v-3.18c3.9-.38,7.8-.75,11.71-1.13,1.11,0,2.23,0,3.34,0,5.29.07,10.58.14,15.88.2-1.13,3.74-4.28,4.4-7.52,4.94Z"/>
      <path class="cls-18" d="m118.7,270.1c.91-1.63,1.83-3.26,2.74-4.89.78-1.16,1.56-2.31,2.34-3.47.15-.21.2-.44.17-.69,1.8-2.84,3.59-5.69,5.59-8.86,5.41,3.24,10.58,6.51,15.93,9.47,2.47,1.37,2.15,2.8,1.01,4.7-2.31,3.87-4.5,7.81-6.9,11.62-1.7,2.7-3.41,4.5-6.99,1.65-3.49-2.79-7.79-4.54-11.65-6.9-.93-.57-1.5-1.73-2.24-2.62Z"/>
      <path class="cls-29" d="m299.48,353.73c-1.72-.19-4.07,2.7-5.08-1.03,1.65-.93,3.31-1.86,4.96-2.79.86-.43,1.73-.85,2.59-1.28l.87.92c-1.11,1.39-2.23,2.79-3.34,4.18Z"/>
      <path class="cls-24" d="m108,247.49c-.22.3-.43.6-.65.9.22-.3.43-.6.65-.9Z"/>
      <path class="cls-24" d="m142.26,173.08c.84-1.4,1.68-2.81,2.52-4.21.78,2.37,1.1,4.47-2.52,4.21Z"/>
      <path class="cls-24" d="m138.84,179.72c.27-.55.55-1.1.82-1.65-.27.55-.55,1.1-.82,1.65Z"/>
      <path class="cls-24" d="m141.32,174.73c.32-.55.64-1.11.96-1.66-.32.55-.64,1.11-.96,1.66Z"/>
      <path class="cls-24" d="m138.02,181.44c.29-.58.57-1.16.86-1.75-.29.58-.57,1.16-.86,1.75Z"/>
      <path class="cls-24" d="m145.03,168.05c-.13-.22-.18-.45-.13-.7.24-.04.48-.08.72-.14-.2.28-.39.56-.59.85Z"/>
      <path class="cls-21" d="m227.58,116.4v3.18c-4.98,4.39-5.91,10.13-5.97,16.41-.03,3.2-1.29,6.39-1.99,9.58-1.35,6.11-.52,8.07,4.75,11.75.7.49,1.04,1.49,1.55,2.25-6.14,2.06-12.28,4.13-18.42,6.19-.28.21-.56.42-.84.63,0,0,.01-.02.01-.02-.33.27-.66.54-.99.81-.49.04-.99.08-1.48.11-1.01-.21-2.26-.9-2.99-.54-5.3,2.6-7.88,1.15-7.9-4.67-.01-3.34,0-6.68,0-10.03,0-.56-.13-1.15.02-1.67,3.36-11.74,2.28-23.88,3.42-35.83.32-3.4,1.58-6.7,2.41-10.05,4.14-.64,6.48,2.34,9.16,4.58,2.52,2.11,4.78,4.59,7.5,6.38,1.29.85,3.38.48,5.11.66,2.22.09,4.43.17,6.65.26Z"/>
      <path class="cls-29" d="m242.62,115.27c-1.11,0-2.23,0-3.34,0,1.11-2.22,2.23-2.22,3.34,0Z"/>
      <path class="cls-4" d="m190.08,203.25c.25-.53.5-1.05.75-1.58.3-.34.61-.67.91-1.01.33-.08.48-.28.45-.62.4-.89.8-1.77,1.2-2.66,1.09-1.38,2.18-2.77,3.27-4.15.87-.84,1.74-1.68,2.61-2.53,6.52-6.53,13.64-12.17,22.48-15.28.84-.19,1.68-.38,2.51-.57,1.95-.55,3.9-1.11,5.85-1.66.73-.26,1.46-.52,2.18-.77,4.01-.1,8.01-.21,12.02-.31l.4.09.4-.09c.55.1,1.1.2,1.64.3.57.18,1.15.36,1.72.54.29-.02.57-.04.86-.06l.39.06.38-.13c3.63.99,7.27,1.98,10.9,2.97-.28,1.29-.55,2.58-.83,3.87-2.23-.46-4.46-.93-6.69-1.39-2.2-.34-4.41-.68-6.61-1.01-.29-.2-.59-.4-.88-.6-.57,0-1.14-.02-1.7-.03-2.24.18-4.48.37-6.72.55-4.73.91-9.47,1.82-14.2,2.73-.6.2-1.2.4-1.8.61l.03-.05c-3.07,1.46-6.37,2.58-9.14,4.47-3.03,2.07-5.57,4.86-8.33,7.34-1.11.85-2.22,1.69-3.32,2.54-.21.28-.42.56-.64.84-.16.23-.24.49-.23.77l-1.03,1.03c-.32-.03-.49.12-.51.44-.64,1.2-1.27,2.4-1.91,3.6-.24.28-.48.55-.72.83-.82,1.69-1.65,3.38-2.47,5.07l-.64,1.7c-.2.2-.31.45-.32.73l.03-.02c-.3.58-.6,1.15-.9,1.73-.44,1.14-.88,2.28-1.33,3.42-.3,1.38-.6,2.76-.9,4.14-.28.84-.56,1.67-.84,2.51-.09,1.13-.17,2.26-.26,3.4-1.31.26-2.61.53-3.92.79.23-2.78.46-5.57.69-8.35.2-.28.4-.55.6-.83.03-.29.07-.58.1-.87.35-1.67.69-3.33,1.04-5,.48-.84.96-1.69,1.44-2.53.19-.2.26-.44.2-.71.58-1.42,1.17-2.83,1.75-4.25Z"/>
      <path class="cls-24" d="m184.25,225.79c1.31-.26,2.61-.53,3.92-.79,0,0,.28-.11.28-.11-.11,3.08-.22,6.17-.33,9.25-1.28,0-2.56,0-3.84.01-.11-1.4-.22-2.79-.32-4.19.01-1.12.02-2.23.03-3.35.09-.28.17-.55.26-.83Z"/>
      <path class="cls-27" d="m184.28,234.16c1.28,0,2.56,0,3.84-.01.28,1.68.56,3.36.84,5.04-1.26,0-2.52,0-3.78,0l-1.05-.96c0-.26-.05-.51-.17-.74.11-1.11.21-2.22.32-3.33Z"/>
      <path class="cls-29" d="m185.54,216.62c-.2.28-.4.55-.6.83.2-.28.4-.55.6-.83Z"/>
      <path class="cls-4" d="m194.97,254.05l2.51.03c1.41.29,2.83.58,4.24.87-1.11,2.3-2.22,4.61-3.33,6.91-.29.25-.58.5-.88.75-3.31.83-6.61,1.66-9.92,2.49-.05-1.1-.09-2.21-.14-3.31.78-1.69,1.57-3.37,2.35-5.06.09-.54.18-1.08.27-1.62,1.38-.33,2.76-.65,4.14-.97l.38.02.37-.1Z"/>
      <path class="cls-6" d="m194.22,254.13c-1.38.32-2.76.65-4.14.97-.32-.58-.64-1.15-.96-1.73-.09-.29-.18-.58-.26-.87-.19-.27-.38-.55-.57-.82-.54-1.39-1.09-2.79-1.63-4.18-.29-.83-.59-1.66-.88-2.49-.05-.28-.1-.56-.15-.83-.14-1.66-.28-3.33-.43-4.99,1.26,0,2.52,0,3.78,0,.29,1.12.58,2.24.88,3.36.36,1.38.72,2.76,1.08,4.15,1.1,2.48,2.19,4.96,3.29,7.44Z"/>
      <path class="cls-24" d="m187.59,265.09c3.31-.83,6.61-1.66,9.92-2.49-1.12,1.14-2.23,2.27-3.35,3.41-1.41,1.07-2.82,2.14-4.23,3.21-.61-.82-1.21-1.64-1.82-2.46-.17-.56-.35-1.11-.52-1.67Z"/>
      <path class="cls-2" d="m189.93,269.22c1.41-1.07,2.82-2.14,4.23-3.21-.3,1.96-.61,3.93-.91,5.9-.51-.06-1.02-.11-1.53-.17-.51-.58-1.02-1.15-1.53-1.73-.04-.28-.13-.54-.26-.79Z"/>
      <path class="cls-4" d="m215.68,211.59c3.85-4.53,7.92-8.77,13.59-11.06.29-.21.59-.43.88-.64,0,0-.03.03-.03.03,9.14-1.94,18.12-1.97,26.72,2.33.2.16.44.22.69.17,1.71,1.41,3.42,2.81,5.12,4.22.54.54,1.09,1.08,1.63,1.61.59.58,1.18,1.16,1.77,1.75,0,.8,0,1.61,0,2.41-.31,1.13-.61,2.26-.92,3.38-3.05-3.01-6.09-6.02-9.14-9.02-.16-.24-.39-.33-.67-.28-1.73-.78-3.45-1.55-5.18-2.33-2.23-.27-4.46-.54-6.68-.81-2.25.19-4.49.37-6.74.56-1.37.09-2.74.19-4.11.28-1.14.46-2.28.92-3.42,1.37-.56.31-1.13.62-1.69.93,0,0,0-.02,0-.02-.26.04-.51.12-.75.25-1.13,1.03-2.27,2.07-3.4,3.1-.28.28-.55.56-.83.84-4.9,3.14-6.54,8.07-7.36,13.44-.62,1.36-1.24,2.72-1.86,4.08-1.09.03-2.17.05-3.26.08.83-3.85,1.67-7.71,2.5-11.56.22-.31.45-.63.67-.94.08-.27.16-.54.24-.81.29-.55.58-1.11.88-1.66.25-.24.49-.48.74-.72.2-.33.39-.66.59-.99Z"/>
      <path class="cls-19" d="m272.62,230.81c-.18,1.68-.36,3.36-.54,5.04-.08.54-.15,1.08-.23,1.63,0,0,.01-.01.01-.01-1.67,3.61-3.35,7.22-5.02,10.83-2.5,2.31-5.01,4.62-7.51,6.92-.3.21-.6.43-.9.64-.26.25-.53.5-.79.76-.27.07-.53.16-.78.27-1.12.56-2.24,1.11-3.36,1.67-3.82,1.15-9.21,1.19-11.02,3.76-1.94,2.77-.53,7.9-.57,12,0,0-.27-.09-.27-.09-.99,0-1.99,0-2.98-.01-.32-4.44-.63-8.89-.95-13.33.26-1.35.51-2.7.77-4.05,1.93-.1,3.86-.19,5.79-.29,1.96-.54,3.92-1.07,5.88-1.61,1.14-.5,2.29-1.01,3.43-1.51,1.1-.54,2.19-1.08,3.29-1.61.3-.3.59-.6.89-.9.53-.35,1.06-.7,1.59-1.06,1.99-2.71,3.97-5.42,5.96-8.13.75-2.52,1.51-5.04,2.26-7.56.36-1.11.73-2.23,1.09-3.34,1.32,0,2.64,0,3.96,0Z"/>
      <path class="cls-19" d="m281.03,264.23c-6.12,5-12.24,9.99-18.36,14.99-.56.29-1.13.59-1.69.88,0,0,0-.01,0-.01-.26.06-.52.14-.78.23-1.83.65-3.66,1.29-5.5,1.94-.15-1.32-.3-2.64-.45-3.96.61-.49,1.22-.98,1.83-1.47,3.32-1.66,6.65-3.32,9.97-4.97,2.24-1.69,4.48-3.38,6.72-5.07.54-.55,1.09-1.09,1.63-1.64.29-.29.57-.58.86-.87.27-.27.54-.54.81-.8.6-.82,1.19-1.64,1.79-2.46,0,0-.04.04-.04.04.56-.32,1.13-.64,1.69-.96,1.13.56,2.26,1.13,3.39,1.69-.35.51-.69,1.02-1.04,1.53-.29.31-.57.62-.86.92Z"/>
      <path class="cls-14" d="m266.05,212.41c0-.8,0-1.61,0-2.41,1.13-.86,2.26-1.72,3.4-2.58.54-.27,1.08-.54,1.62-.81,2.17-1.41,4.34-2.83,6.51-4.24.62-.55,1.23-1.09,1.85-1.64,1.45-1.13,2.89-2.25,4.34-3.38,1.07-.86,2.14-1.73,3.21-2.59l.41.04.4-.11c1.09-.27,2.19-.54,3.28-.8.85.32,1.71.65,2.56.97.01.51.02,1.01.04,1.52-1.41.93-2.82,1.87-4.23,2.8-.3.22-.6.43-.9.65-1.37.91-2.73,1.81-4.1,2.72-.29.2-.57.41-.86.61-.29.25-.57.5-.86.75-.56.31-1.13.62-1.69.93,0,0,.02-.02.02-.02-1.38,1.07-2.77,2.14-4.15,3.21,0,0,0-.02,0-.02-.56.32-1.12.64-1.68.96-.56.28-1.11.57-1.67.85-.83.63-1.67,1.26-2.5,1.89-.28.22-.57.43-.85.65,0,0,0,0,0,0-.22.02-.44.05-.67.07-1.15-.01-2.3-.02-3.45-.03Z"/>
      <path class="cls-11" d="m193.25,271.91c.3-1.97.61-3.93.91-5.9,1.12-1.14,2.23-2.27,3.35-3.41.29-.25.58-.5.87-.75,2.43-.58,4.86-1.16,7.3-1.74.39.81.78,1.62,1.17,2.44,0,.85,0,1.69,0,2.54-1.88,5.79-5.99,8.12-11.89,7.66-.57-.28-1.14-.56-1.72-.83Z"/>
      <path class="cls-11" d="m293.66,196.37c-.01-.51-.02-1.01-.04-1.52,2.8.02,4.2-1.38,4.21-4.18.82-.57,1.65-1.14,2.47-1.71,3.31-.56,6.62-1.12,9.93-1.69,1.59,4.01-2.96,5.88-3.22,9.24-3.16,2.21-6.52,2.12-9.97.81-1.15-.22-2.3-.44-3.45-.66l.06-.29Z"/>
      <path class="cls-4" d="m282.63,238.33c1.6-4.32,4.39-6.96,9.3-6.61,1.16,1.33,2.33,2.67,3.49,4-2.54,1.72-5.08,3.44-7.63,5.16-1.63,0-3.25.01-4.88.02-.09-.86-.19-1.71-.28-2.57Z"/>
      <path class="cls-29" d="m206.85,262.54c-.39-.81-.78-1.62-1.17-2.44-.55-1.36-1.1-2.71-1.65-4.07l.18-.19c3.04-1.12,6.07-2.23,9.68-3.55,1.54,3.39,4.49,6.85,2.95,13-1.83-2.22-2.95-3.64-4.15-5-.81-.92-1.74-1.73-2.61-2.59-.86,1.12-1.75,2.23-2.57,3.38-.3.43-.45.97-.66,1.46Z"/>
      <path class="cls-6" d="m268.65,230.81c-1.17-5-2.35-10.01-3.52-15.01.31-1.13.61-2.26.92-3.39,1.15.01,2.3.02,3.45.03-1.91,1.99-.66,3.49.77,4.96.32.84.64,1.69.96,2.53l1.59,5.85c-.07,1.67-.14,3.35-.21,5.02-1.32,0-2.64,0-3.96,0Z"/>
      <path class="cls-29" d="m189.84,242.54c-.29-1.12-.58-2.24-.88-3.36-.28-1.68-.56-3.36-.84-5.04.11-3.08.22-6.17.33-9.25.76.7,2.21,1.44,2.17,2.08-.33,4.92.28,9.33,5.63,11.92-.11.41-.22.82-.32,1.23-2.03.81-4.06,1.61-6.08,2.42Z"/>
      <path class="cls-29" d="m194.96,272.74c5.91.46,10.02-1.86,11.89-7.66,1.26.81,2.61,1.52,3.75,2.46,1.84,1.51.95,2.6-.8,3.28-3.64,1.43-7.42,2.57-10.93,4.28-2.97,1.45-3.81.41-3.92-2.36Z"/>
      <path class="cls-11" d="m287.79,240.87c2.54-1.72,5.08-3.44,7.62-5.16.51.32,1.02.63,1.54.95.7,3.7-.48,6.69-3.37,9.04-.52.06-1.05.13-1.57.19-2.54-.73-4.65-1.81-4.22-5.03Z"/>
      <path class="cls-29" d="m190.81,216.58c1.37,0,2.75-.02,4.12,0,4.03.07,4.94,1.23,4.6,5.24-.13,1.57.29,3.2.45,4.8-.52-.16-1.43-.24-1.49-.5-1.35-6.06-6.12-4.36-10.07-4.51.28-.84.56-1.67.84-2.51.51-.84,1.03-1.67,1.54-2.51Z"/>
      <path class="cls-11" d="m254.26,278.3c.15,1.32.3,2.64.45,3.96,0,0-.08-.06-.08-.06-.37.11-.74.23-1.1.34-.57.37-1.13.73-1.7,1.1-.84.25-1.67.49-2.51.74-1.4.23-2.81.46-4.21.69h-2.39c.26-1.31.52-2.62.79-3.93,0,0-.08-.28-.08-.28,1.12-.29,2.24-.57,3.36-.86.58-.2,1.15-.41,1.73-.61,1.92-.36,3.84-.73,5.76-1.09Z"/>
      <path class="cls-29" d="m222.53,210.67l-3.04,9.31s.05,0,.07,0c-.4,1.38-.8,2.75-1.19,4.13-1.07,0-2.13,0-3.2,0,.82-5.38,2.46-10.3,7.36-13.44Z"/>
      <path class="cls-27" d="m287.79,240.87c-.43,3.22,1.68,4.3,4.22,5.03-.06.25-.11.5-.16.75-.25.28-.49.56-.74.84l-.77.89s-.03.04-.03.04c-.81.45-1.61.91-2.38,1.34.25,1.01.46,1.9.68,2.8h0c-.21.03-.42.06-.64.09-1.2-.04-2.4-.09-3.6-.13,3.3-4.73,3.17-5.76-1.46-11.6,1.63,0,3.25-.01,4.88-.02Z"/>
      <path class="cls-20" d="m284.37,252.49c1.2.04,2.4.09,3.6.13,0,.52,0,1.04,0,1.56-1.68,2.53-3.36,5.07-5.04,7.6-1.13-.56-2.26-1.13-3.39-1.69,1.3-1.97,2.6-3.95,3.9-5.92.32-.56.63-1.13.95-1.69h-.02Z"/>
      <path class="cls-29" d="m197.08,244.93c4.21-4.07,7.34-3.04,11.29,4.45-4.07-1.61-7.54-2.97-11.29-4.45Z"/>
      <path class="cls-5" d="m237.71,288.46c.28-3.61.55-7.22.83-10.83,1.04,0,2.07,0,3.11,0,.08.82.16,1.64.24,2.47,0,1.74-.01,3.47-.02,5.21-.24,1.07-.49,2.13-.73,3.2-.35.53-.71,1.07-1.06,1.6-.53-.29-1.06-.57-1.59-.86-.26-.26-.52-.52-.78-.78Z"/>
      <path class="cls-29" d="m210.06,228.27c1.09-.03,2.17-.05,3.26-.08-.57,2.28-1.14,4.56-1.84,7.34-.66-.11-1.9-.33-3.14-.55-.28-.56-.56-1.11-.84-1.67v-3.34c.85-.56,1.7-1.13,2.56-1.69Z"/>
      <path class="cls-29" d="m194.22,254.13c-1.1-2.48-2.19-4.96-3.29-7.44,3.11-.3,4.12,1.34,3.95,4.18-.07,1.05.06,2.12.09,3.18l-.37.1-.38-.02Z"/>
      <path class="cls-29" d="m201.72,254.94c-1.41-.29-2.83-.58-4.24-.87,1.27-.77,3.01-2.45,3.72-2.1,1.32.66,2.04,2.51,3.01,3.87,0,0-.18.19-.18.19-.77-.36-1.54-.73-2.32-1.09Z"/>
      <path class="cls-29" d="m227.57,210.73c-1.4-.3-2.81-.6-4.21-.91,1.13-1.03,2.27-2.07,3.4-3.1.26.22.53.44.79.66,0,1.11,0,2.23.01,3.34Z"/>
      <path class="cls-29" d="m202.42,282.79c1.58.68,3.16,1.36,4.74,2.04-.15.41-.29.82-.44,1.22-1.68-.59-3.36-1.17-5.04-1.76.25-.5.49-1,.74-1.51Z"/>
      <path class="cls-16" d="m241.64,277.63c-1.04,0-2.07,0-3.11,0,.04-1.14.08-2.28.12-3.42.99,0,1.99,0,2.98.01,0,1.14,0,2.27,0,3.41Z"/>
      <path class="cls-29" d="m236.72,203.91c.02,1.16.03,2.32.05,3.48-1.39-1.07-2.77-2.13-4.16-3.2,1.37-.09,2.74-.19,4.11-.28Z"/>
      <path class="cls-16" d="m242.71,285.06c-.28.08-.56.16-.84.24,0-1.74.01-3.47.02-5.21.54.35,1.08.69,1.61,1.04-.26,1.31-.52,2.62-.79,3.93Z"/>
      <path class="cls-29" d="m205.75,293.65c-1.41-.86-2.83-1.71-4.24-2.57,2.65-1.18,4.32-.74,4.24,2.57Z"/>
      <path class="cls-29" d="m199.04,289.38c-.27.04-.51-.02-.73-.17-.28-.79-.56-1.59-.84-2.38,1.11.84,2.23,1.67,3.34,2.51-.59.01-1.18.03-1.78.04Z"/>
      <path class="cls-29" d="m199.97,238.48c-.22.45-.38.77-.55,1.1-.33-.28-.75-.51-.95-.86-.07-.12.32-.7.59-.78.2-.07.55.32.91.54Z"/>
      <path class="cls-19" d="m253.52,282.54c.37-.11.73-.23,1.1-.34-.37.12-.74.23-1.1.34Z"/>
      <path class="cls-4" d="m300.3,188.96c-.82.57-1.65,1.14-2.47,1.71-2.16.28-4.33.55-6.49.83-.99-5.32,1.57-8.94,5.63-11.86,3.17.55,6.35,1.02,9.49,1.71.57.12.94,1.13,1.41,1.72-2.52,1.96-5.05,3.93-7.57,5.89Z"/>
      <path class="cls-11" d="m286.97,194.75c-1.07.86-2.14,1.73-3.21,2.59-3.13-3.31-6.27-6.62-9.4-9.93.02-1.44.04-2.89.05-4.33.24.03.47.06.71.09.31.21.62.42.92.63.28.06.57.12.85.17.28.29.55.58.83.88.82.83,1.64,1.66,2.45,2.49.3.29.59.58.89.87.89.82,1.79,1.63,2.68,2.45.51.6,1.01,1.19,1.52,1.79.23.24.47.48.7.72.33.53.67,1.06,1,1.59Z"/>
      <path class="cls-2" d="m274.41,183.09c-.02,1.44-.04,2.89-.05,4.33-2.77-1.78-5.54-3.56-8.31-5.34.55-1.05,1.11-2.11,1.66-3.16.51.03,1.02.05,1.53.08.32.27.64.55.96.82,0,0,0-.01,0-.01.28.23.56.46.84.68,1.13.87,2.25,1.73,3.38,2.6Z"/>
      <path class="cls-24" d="m267.72,178.92c-.55,1.05-1.11,2.11-1.66,3.16-1.96-.81-3.91-1.62-5.87-2.42.28-1.29.55-2.58.83-3.87,2.23,1.04,4.47,2.09,6.7,3.13Z"/>
      <path class="cls-24" d="m291.34,191.5c2.16-.28,4.33-.55,6.49-.83,0,2.8-1.4,4.2-4.21,4.18-.85-.32-1.71-.65-2.56-.97.09-.8.19-1.59.28-2.39Z"/>
      <path class="cls-29" d="m260.18,179.66c1.96.81,3.91,1.62,5.87,2.42,2.77,1.78,5.54,3.56,8.31,5.34,3.13,3.31,6.27,6.62,9.4,9.93-1.45,1.13-2.89,2.25-4.34,3.38.29-2.41-.21-4.26-2.8-5.31-1.01-.41-1.79-1.69-2.41-2.72-1.36-2.27-1.89-5.63-5.9-3.78-.28.13-1.02-.09-1.13-.33-1.55-3.47-4.66-2.36-7.73-2.28,1.12-3.67.21-5.77-3.7-5.97-.79-.04-1.51-1.34-2.26-2.06,2.23.46,4.46.93,6.69,1.39Z"/>
      <path class="cls-29" d="m244.3,176.62c.01,1.1.11,2.22,0,3.31-.15,1.57-.25,4.41-.71,4.48-3,.46-6.23.88-9.12.19-2.04-.49-1.31-4.39.87-5.58.83-.46,1.49-1.22,2.23-1.85,2.24-.18,4.48-.37,6.72-.55Z"/>
      <path class="cls-29" d="m221.6,180.46c-3,2.72-6.15,5.3-8.97,8.21-2.4,2.48-5.04,3.88-8.5,3.61,2.76-2.48,5.3-5.27,8.33-7.34,2.77-1.89,6.08-3.01,9.14-4.47Z"/>
      <path class="cls-29" d="m195.8,204.88c1.07.42,2.14.84,3.83,1.5-1.63,1.22-2.62,1.96-3.82,2.86,1.17,1.04,2.16,1.91,3.77,3.33-1.48.85-2.58,1.81-3.8,2.01-.41.07-1.16-1.78-1.7-2.79-.32-.6-.52-1.27-.78-1.9-.2-.27-.41-.54-.61-.81.21-.57.42-1.13.64-1.7.83-.84,1.66-1.67,2.49-2.51Z"/>
      <path class="cls-29" d="m196.51,201.49c.32.02.64.03.97.05-.55.56-1.09,1.11-1.64,1.67-.02-.3-.03-.59-.05-.89.24-.28.48-.55.72-.83Z"/>
      <path class="cls-29" d="m192.39,209.8c-.3.58-.6,1.15-.9,1.73.3-.58.6-1.15.9-1.73Z"/>
      <path class="cls-29" d="m223.37,179.9c-.6.2-1.2.4-1.8.61.6-.2,1.2-.4,1.8-.61Z"/>
      <path class="cls-29" d="m246.88,177.25c-.29-.2-.59-.4-.88-.6.29.2.59.4.88.6Z"/>
      <path class="cls-24" d="m201.72,254.94c.77.36,1.54.73,2.32,1.09.55,1.36,1.1,2.71,1.65,4.07-2.43.58-4.87,1.16-7.3,1.74,1.11-2.3,2.22-4.61,3.33-6.91Z"/>
      <path class="cls-29" d="m188.85,252.51c-.19-.27-.38-.55-.57-.82.19.27.38.55.57.82Z"/>
      <path class="cls-14" d="m300.3,188.96c2.52-1.96,5.05-3.93,7.57-5.89.79,1.4,1.58,2.8,2.36,4.2-3.31.56-6.62,1.12-9.93,1.69Z"/>
      <path class="cls-29" d="m256.84,202.25c-8.6-4.3-17.58-4.27-26.72-2.33.91-.9,1.7-2.34,2.76-2.6,7.05-1.72,14.2-2.09,21.1.49,1.32.49,1.93,2.91,2.86,4.44Z"/>
      <path class="cls-29" d="m231.61,186.18c-1.33.89-2.42,1.94-2.7,1.75-.87-.56-1.42-1.6-2.1-2.46.68-.48,1.44-1.42,2.01-1.32.84.16,1.55,1.06,2.79,2.02Z"/>
      <path class="cls-29" d="m277.58,202.37c-2.17,1.41-4.34,2.83-6.51,4.24.59-3.84,3.05-4.8,6.51-4.24Z"/>
      <path class="cls-29" d="m256.09,190.83c-1.51.49-3.02.98-4.54,1.47-.21-.56-.42-1.12-.63-1.68,1.43-.58,2.85-1.16,4.28-1.74.3.65.59,1.3.89,1.95Z"/>
      <path class="cls-29" d="m262.66,206.64c-1.71-1.41-3.42-2.81-5.12-4.22,3.09-.27,5.25.59,5.12,4.22Z"/>
      <path class="cls-29" d="m269.45,207.42c-1.13.86-2.26,1.72-3.4,2.58-.59-.58-1.18-1.16-1.77-1.75,1.72-.28,3.44-.56,5.16-.84Z"/>
      <path class="cls-29" d="m230.15,199.89c-.29.21-.59.43-.88.64.29-.21.59-.43.88-.64Z"/>
      <path class="cls-27" d="m284.39,252.48c-.32.56-.63,1.13-.95,1.69.32-.56.63-1.13.95-1.69Z"/>
    </g>
  </g>
</svg>